<svg xmlns="http://www.w3.org/2000/svg" viewBox="0 0 175.21 42"><defs><style>.cls-1{fill:#77bc1f;}</style></defs><title>acer</title><g id="Layer_2" data-name="Layer 2"><g id="Layer_1-2" data-name="Layer 1"><path class="cls-1" d="M174.89,1.87c-.6-.88-1.32-1.48-4.3-1.7C169.81.1,167.22,0,162.87,0c-11.44,0-19.21,3.47-23.19,10.32Q141.33,0,119.52,0q-25.61,0-32,20.63Q85.16,28.3,87,33.2l-4,.27c-3.15.24-7.29.45-9.83.45q-9.37,0-11.63-3.14c-1.34-1.88-1.21-5.38.36-10.47C64.51,11.87,71,8.07,81.28,8.07c5.35,0,10.56.56,10.56.56h0a1.17,1.17,0,0,0,1-1.41l-.1-.81-.37-2.84Q92,.78,88.16.26C85.84.1,84.12,0,81.58,0h-.14Q61.21,0,53.24,13.28,56.17,0,34.52,0A151.18,151.18,0,0,0,17.24.68q-4,.5-4.9,3.32L11.19,7.65c-.21.67.11,1,1,1h0c.63-.08,3.08-.32,7.25-.66q8.28-.66,12.31-.66,11.92,0,10,6A2.29,2.29,0,0,1,40,14.93Q28.72,16.8,22.1,17.62,3.47,20,.57,29.23q-4,12.71,19.92,12.71a123.48,123.48,0,0,0,20-1.37c3.11-.52,4.68-1.32,5.31-3.32l3-9.44C48.46,37.25,55.08,42,68.63,42a106.06,106.06,0,0,0,14.06-.65c2.78-.48,4.11-1.09,4.72-3.18l.6-3q4.33,6.75,19,6.75,15.48,0,18.05-.86a3.62,3.62,0,0,0,2.64-2.23,3.55,3.55,0,0,0,.13-.59l1.24-4c.21-.7-.11-1-1-1l-6.61.32q-6.61.36-10.35.37-7,0-9.67-1-3.91-1.51-3.73-6l20.92-2.68q14.07-1.8,18.83-8.66L130.44,40.3a1.14,1.14,0,0,0,.16,1.12,1.74,1.74,0,0,0,1.39.46h8.66a2,2,0,0,0,2.24-1.44l7.65-26.65c1-3.51,4.23-5.21,9.86-5.21,5.08,0,8.91,0,11.36.13h.19a1.82,1.82,0,0,0,1.77-1.33l1.34-3.66A2,2,0,0,0,174.89,1.87ZM35.33,33.93a80.75,80.75,0,0,1-11.66.64q-13.2,0-11.53-5.33c.8-2.55,3.11-4.08,6.94-4.6l20-2.69Zm92.52-21.59q-1.26,4.1-11.74,5.61L99.43,20.31l.42-1.37q2.07-6.74,5.88-9.18t12.38-2.44Q129.4,7.33,127.85,12.34Z"/></g></g></svg>