<svg xmlns="http://www.w3.org/2000/svg" xmlns:xlink="http://www.w3.org/1999/xlink" viewBox="0 0 128 128"><defs><style>.a{fill:#fffaeb;}.b{fill:url(#a);}</style><linearGradient id="a" x1="0.5" x2="0.5" y2="1" gradientUnits="objectBoundingBox"><stop offset="0" stop-color="#ffcb31"/><stop offset="1" stop-color="#fd8b7c"/></linearGradient></defs><path class="a" d="M64,0A64,64,0,1,1,0,64,64,64,0,0,1,64,0Z" transform="translate(0)"/><g transform="translate(26.791 26.791)"><path class="b" d="M34.24,74.409,3.169,55.287A6.578,6.578,0,0,1,0,49.629c0-1.342.431-1.722,1.146-2.79L31.94,65.794a11.024,11.024,0,0,0,11.511-.005L74.238,46.837c.715,1.069,1.147,1.449,1.147,2.791a6.579,6.579,0,0,1-3.17,5.658L41.147,74.409a6.6,6.6,0,0,1-6.908,0Zm0-12.389L3.169,42.9A6.579,6.579,0,0,1,0,37.238c0-1.341.431-1.113,1.146-2.181L31.94,54.011a11.051,11.051,0,0,0,11.511,0L74.238,35.056a6.546,6.546,0,0,1,1.147,3.656c0,2.327-1.183,2.972-3.17,4.186L41.147,62.02a6.6,6.6,0,0,1-6.908,0Zm0-11.782L3.169,31.116a6.631,6.631,0,0,1,0-11.311L34.237.977a6.6,6.6,0,0,1,6.911,0L72.214,19.8a6.63,6.63,0,0,1,0,11.311L41.147,50.238a6.593,6.593,0,0,1-6.908,0Z" transform="translate(0 0)"/></g></svg>