<svg xmlns="http://www.w3.org/2000/svg" viewBox="0 0 191.51 32"><defs><style>.cls-1{fill:#010101;}.cls-1,.cls-3,.cls-4,.cls-9{fill-rule:evenodd;}.cls-2{fill:#e79298;}.cls-3{fill:#3f3a86;}.cls-4{fill:#fff;}.cls-5{fill:#e14055;}.cls-6{fill:#e5889d;}.cls-7{fill:#e6879c;}.cls-8,.cls-9{fill:#f0e520;}</style></defs><title>ch</title><g id="Layer_2" data-name="Layer 2"><g id="Layer_1-2" data-name="Layer 1"><path class="cls-1" d="M59.3,6.57c-.57-2.86-2.86-4.3-5.66-4.3-4.81,0-6.85,4-6.85,8.17,0,4.61,2,8.46,6.88,8.46,3.54,0,5.57-2.49,5.83-5.83h2.69c-.51,5-3.65,8.09-8.74,8.09-6.28,0-9.34-4.64-9.34-10.53S47.44,0,53.67,0c4.22,0,7.7,2.26,8.32,6.57Zm130-3.27h.24c.27,0,.51-.1.51-.36s-.13-.37-.51-.37l-.24,0Zm0,1.15H189V2.38a3.65,3.65,0,0,1,.59-.05,1.09,1.09,0,0,1,.65.16.5.5,0,0,1,.19.43.52.52,0,0,1-.41.51v0c.18,0,.31.2.35.51a1.76,1.76,0,0,0,.13.51h-.35a1.57,1.57,0,0,1-.14-.53.39.39,0,0,0-.45-.36h-.23Zm.35-2.66a1.54,1.54,0,0,0-1.49,1.58,1.5,1.5,0,1,0,3,0,1.54,1.54,0,0,0-1.49-1.58Zm0-.29a1.84,1.84,0,0,1,1.83,1.87,1.85,1.85,0,1,1-3.69,0,1.86,1.86,0,0,1,1.85-1.87Zm-3.79,4.56h2.91V8.19h-2.91v9.08c0,1.1.31,1.3,1.81,1.3h1.1v2.12H187c-2.49,0-3.48-.51-3.48-3.2V8.19H181V6.06h2.49V1.68h2.41Zm-18.36,0h2.26V8.38h.06a5.09,5.09,0,0,1,4.75-2.66c3.85,0,5,2.21,5,5.34v9.62h-2.4v-9.9a2.76,2.76,0,0,0-3-2.94c-2.91,0-4.33,2-4.33,4.58v8.26h-2.41Zm-5.43,0h2.41V20.69h-2.41Zm2.41-2.63h-2.41V.49h2.41ZM152.72,18.91c2.52,0,4.56-2,4.56-5.52s-2-5.54-4.56-5.54-4.56,2-4.56,5.54S150.21,18.91,152.72,18.91Zm0-13.18c4.64,0,7.1,3.37,7.1,7.66S157.36,21,152.72,21s-7.1-3.37-7.1-7.64S148.08,5.72,152.72,5.72Zm-19.88,4.44h5.26c3,0,4.42-1.3,4.42-3.71s-1.39-3.71-4.42-3.71h-5.26ZM130.16.49H139c4,0,6.2,2.24,6.2,6s-2.18,6-6.2,6h-6.17v8.26h-2.69Zm-21.39,0h2.41v12l6.68-6.39h3.23l-5.8,5.32,6.23,9.31h-3.06l-5-7.64-2.26,2.09v5.55h-2.41Zm-4.7,10.27a3.41,3.41,0,0,0-3.62-2.91c-3.48,0-4.56,2.74-4.56,5.71,0,2.69,1.22,5.35,4.27,5.35a3.78,3.78,0,0,0,4-3.57h2.46c-.54,3.57-2.77,5.69-6.45,5.69-4.47,0-6.85-3.11-6.85-7.47s2.26-7.83,6.91-7.83c3.31,0,6,1.56,6.31,5ZM89.15,12a4.21,4.21,0,0,0-4.22-4.13A4.17,4.17,0,0,0,80.75,12ZM91.47,16a5.9,5.9,0,0,1-6.25,5c-4.67,0-6.88-3.23-7-7.7s2.89-7.61,6.88-7.61c5.18,0,6.76,4.83,6.62,8.37h-11c-.08,2.55,1.36,4.81,4.56,4.81A3.53,3.53,0,0,0,89.1,16ZM64.42.49h2.41V8.21h.06c.79-1.75,2.86-2.49,4.61-2.49,3.85,0,5,2.21,5,5.34v9.62h-2.4v-9.9a2.76,2.76,0,0,0-3-2.94c-2.92,0-4.33,2-4.33,4.58v8.26H64.42Z"/><path class="cls-1" d="M48.9,27.34A1.39,1.39,0,0,0,47.33,26c-.71,0-1.43.26-1.43,1.09s1,.9,2,1.13,2,.59,2,1.84S48.65,32,47.49,32c-1.43,0-2.63-.69-2.63-2.24h.8c0,1.07.89,1.53,1.85,1.53.77,0,1.61-.24,1.61-1.16s-1-1-2-1.25-2-.52-2-1.68,1.15-1.86,2.31-1.86a2,2,0,0,1,2.34,2Zm141,4.5h1v-1h-1Zm-5.1-.71h1.41c.58,0,2.14-.16,2.14-2.5,0-1.52-.56-2.43-2.12-2.43H184.8ZM184,25.48h2.18a2.71,2.71,0,0,1,3.05,3c0,2.13-.94,3.33-3.05,3.33H184Zm-4,.71h-2.12v-.71h5.09v.71h-2.12v5.65h-.85Zm-6-.71h.85v5.65h3.37v.71h-4.21Zm-5,1.86a1.39,1.39,0,0,0-1.58-1.3c-.71,0-1.42.26-1.42,1.09s1,.9,2,1.13,2,.59,2,1.84-1.33,1.9-2.49,1.9c-1.42,0-2.63-.69-2.63-2.24h.8c0,1.07.89,1.53,1.85,1.53.77,0,1.61-.24,1.61-1.16s-1-1-2-1.25-2-.52-2-1.68,1.15-1.86,2.3-1.86a2.05,2.05,0,0,1,2.35,2Zm-9.46-1.86h4.39v.71h-3.54v2h3.3v.71h-3.3v2.2h3.57v.71h-4.42Zm-2.61,0h.85v6.36h-.85ZM154.49,31a2.49,2.49,0,0,1-2,.95,3,3,0,0,1-3-3.21c0-1.85,1-3.46,3-3.46a2.47,2.47,0,0,1,2.73,2.11h-.85a1.72,1.72,0,0,0-1.89-1.4c-1.54,0-2.18,1.34-2.18,2.7a2.29,2.29,0,0,0,2.18,2.54,1.91,1.91,0,0,0,2-2.08h-2v-.71h2.79v3.35h-.53Zm-9.17.23c1.55,0,2.2-1.34,2.2-2.62s-.65-2.62-2.2-2.62-2.2,1.34-2.2,2.62S143.77,31.28,145.32,31.28Zm0-6a3.05,3.05,0,0,1,3,3.33,3.06,3.06,0,1,1-6.09,0A3.05,3.05,0,0,1,145.32,25.33Zm-7.82.15h.85v5.65h3.37v.71H137.5Zm-4.34,5.8c1.55,0,2.2-1.34,2.2-2.62s-.65-2.62-2.2-2.62-2.2,1.34-2.2,2.62S131.61,31.28,133.16,31.28Zm0-6a3.05,3.05,0,0,1,3,3.33,3.06,3.06,0,1,1-6.09,0A3.05,3.05,0,0,1,133.16,25.33Zm-9.47.15h.9l3.35,5.16h0V25.48h.8v6.36h-.93l-3.32-5.1h0v5.1h-.8Zm-6.76,0h.85v2.73h3.35V25.48H122v6.36h-.85V28.93h-3.35v2.91h-.85Zm-2.3,1.92A1.68,1.68,0,0,0,112.85,26c-1.52,0-2.16,1.25-2.16,2.58s.64,2.66,2.16,2.66a1.8,1.8,0,0,0,1.84-1.83h.85A2.59,2.59,0,0,1,112.79,32c-2,0-2.94-1.46-2.94-3.31s1.05-3.35,3-3.35a2.43,2.43,0,0,1,2.62,2.07Zm-10.25-1.92h4.39v.71h-3.54v2h3.3v.71h-3.3v2.2h3.57v.71h-4.42Zm-4,.71H98.25v-.71h5.09v.71h-2.12v5.65h-.85Zm-10-.71h4.39v.71H91.18v2h3.3v.71h-3.3v2.2h3.57v.71H90.33ZM86.5,28.41c.79,0,1.47-.21,1.47-1.13a1,1,0,0,0-1.13-1.09h-2.1v2.22Zm-2.61-2.93h3c1.19,0,1.93.65,1.93,1.67a1.52,1.52,0,0,1-1.1,1.61v0c.74.14.89.69,1,1.31A3.24,3.24,0,0,0,89,31.84H88.1c-.24-.26-.11-.94-.23-1.57s-.24-1.15-1.06-1.15H84.74v2.72h-.85Zm-5,3.73H81l-1.06-3h0Zm.63-3.73h.94l2.48,6.36H82l-.69-1.91H78.61l-.71,1.91H77Zm-4,6.36h-.88L73.14,26.5h0l-1.47,5.34h-.88l-1.63-6.36H70l1.25,5.29h0l1.43-5.29h.92L75,30.77h0l1.29-5.29h.85ZM65.42,26.19H63.3v-.71h5.09v.71H66.26v5.65h-.85Zm-7-.71h4.18v.71H59.29v2h2.92v.71H59.29v2.91h-.85ZM54,31.28c1.55,0,2.2-1.34,2.2-2.62S55.58,26,54,26s-2.2,1.34-2.2,2.62S52.48,31.28,54,31.28Zm0-6a3.05,3.05,0,0,1,3,3.33,3.06,3.06,0,1,1-6.09,0A3.05,3.05,0,0,1,54,25.33Z"/><rect class="cls-2" width="36.44" height="32"/><path class="cls-3" d="M23.66,19.69c-.75.1-2.23.25-2.94.32s-1.35.1-2.08.14-1.33,0-2,0a16.6,16.6,0,0,1-2.08-.08,16.57,16.57,0,0,1-2.1-.42c-.79-.1-1.39-.24-2.05-.38A10.27,10.27,0,0,0,9,19a2.26,2.26,0,0,1-.18-.32,11.83,11.83,0,0,1-.72-2,26.14,26.14,0,0,1-.54-2.68,3.77,3.77,0,0,0-.28-1,6,6,0,0,1-.16-1.68C7,10.69,7,9,7,8.34a7.28,7.28,0,0,1,.27-1.89,10.68,10.68,0,0,1,.78-2A7.17,7.17,0,0,1,8.84,3c.42-.54.52-.79.73-1a.93.93,0,0,1,.2-.06c.51-.17,1-.22,1.25-.3.06,0,.33,0,.39,0l2,.05c.58,0,1.25.07,2,.08l2.1,0c.67,0,1.35,0,2,0s1.26.06,1.87.06,1.29,0,1.89,0,1.29,0,1.82-.05a16.08,16.08,0,0,0,1.79-.09,8.1,8.1,0,0,1,1.56-.2,1.35,1.35,0,0,1,.26.12,6.22,6.22,0,0,1,.86.54,25,25,0,0,0,0,2.86c.06.62.17,1.31.27,2s.13,1.22.23,1.87.33,1.6.41,2.13c.15,1,.19.44.32,1.24A21.29,21.29,0,0,1,31,14.42a15.29,15.29,0,0,1-.16,2.81,2,2,0,0,1-.63,1.34,11.11,11.11,0,0,1-1.71.37c-.78.13-.72,0-1.18.13a15,15,0,0,1-2.31.27c-.78.07-.18.14-1.09.26C23.85,19.61,23.76,19.67,23.66,19.69Z"/><path class="cls-4" d="M10.88,3.13c.27-.6.51-.55,1.07-.59a6.81,6.81,0,0,1,1.28.15,3.64,3.64,0,0,1,.83.08,7,7,0,0,0,1,.16c.43.06,1.73.35,2.23.4s.94.29,1.43.32l1.41.1,1.41,0c.49,0,1-.09,1.41-.09s.95-.09,1.35-.12a6.33,6.33,0,0,0,1.3-.21A2.93,2.93,0,0,1,27,3.29,1.27,1.27,0,0,1,28,4a6,6,0,0,1,.16,1.33c0,.3-.1.81-.1,1.43,0,.42,0,.9,0,1.4s.07.94.08,1.43,0,1,0,1.42,0,1,.05,1.43,0,1,0,1.37a6,6,0,0,1,.07,1.36c-.07.68.15.81-.5,1.32a2.35,2.35,0,0,1-1.25.52c-.17,0-.62.16-1.29.32l-1.29.3c-.39.09-.85.15-1.31.24s-.84.13-1.3.2-.86.08-1.3.14-.85,0-1.29,0-.81.07-1.23.09,0,.11-.18.17a3.3,3.3,0,0,1-1.32.07c-.4,0-.79,0-1.28,0s-.89-.06-1.33-.11-.87-.18-1.28-.26a8.36,8.36,0,0,1-1.3-.23,1.93,1.93,0,0,1-1-.67,4.7,4.7,0,0,1-.22-1.4c0-.39,0-.84,0-1.33s-.08-.85-.07-1.31,0-.88,0-1.34,0-.87.07-1.31.15-.87.19-1.31S10,8.45,10.08,8s0-.86.08-1.26.16-.86.22-1.25,0-.93.09-1.29A2.44,2.44,0,0,1,10.88,3.13Z"/><path class="cls-3" d="M33.19,28a7.86,7.86,0,0,1-2.2.33c-.47,0-1.15.06-2,.09-.59,0-1.21-.08-1.95,0s-1.24,0-1.92.07-1.36.13-2.08.18-1,0-1.7,0-1.22-.16-1.91-.1-1.72.07-2.35.14-1.39.32-2,.4-1.19,0-1.82.11-1.4.3-2,.39-1.27.2-1.85.31-1.22.18-1.75.3-.92.28-1.31.4a15,15,0,0,1-2.2.53c-1.2.17-1.74-.08-2.07-.56a4.31,4.31,0,0,1-.48-1.73,10,10,0,0,0-.19-1.06c-.19-1-.35-1.62.24-2.24a5,5,0,0,1,1.49-1A9.73,9.73,0,0,1,5,23.65c.51-.21,1.14-.43,1.89-.67.58-.19,1.25-.31,2-.51s1.25-.32,2-.49,1.28-.34,2-.48,1.3-.24,2-.35,1.39-.19,2.13-.28,1.35-.15,2.06-.22,1.28-.19,2-.25,1.57,0,2.27,0,1-.17,1.67-.2,1.29,0,2-.06l2,0c.57,0,1.15,0,1.74,0a5,5,0,0,1,2.38.37c.73.47.64.74.67,1.66a6.05,6.05,0,0,0,.1,1.55c.18,1.1.2,2.06.28,3C34.08,27.1,33.75,27.53,33.19,28Z"/><path class="cls-3" d="M25.41,6.19V5.1h-1.1V6.19h1.1ZM14.73,8.1l4.84.73L24,7.38,24.65,7l0-.1h0V6.46H24V4.83h1.63V6.46H25v.66l-.07,0,0,0v0l2,2.46.14.17-.22,0-2.8.53,0-.26,2.58-.49L24.77,7.51l-.66,2.14-.26-.08.64-2.08-.41.13L19.94,10l.57,1.63L23.73,10l.12.24-3.35,1.7-.14.07-.05-.14-.08-.25-2.3-.18,0-.27,1.89.14-1.12-.63-.89.5h0L12.58,13,12.3,13l.12-.27,1.82-4.25.24.1-1.7,4,4.93-1.66.74-.42-3.92-2.2-.07,0V7.56H13.8V5.93h1.63V7.56h-.7Zm12.6,4.32V11.33h-1.1v1.09Zm.27-1.23v1.49H26V11.07h.62v-.46h.27v.45h.74Zm-6.38,2.64V12.74h-1.1v1.09Zm.27-1.23V14.1H19.86V12.48h.63v-.26h.27v.26h.74Zm-3.28.87V12.38h-1.1v1.09Zm.27-1.23v1.49H16.85V12.12h.67v-.25h.27v.25h.69Zm-6.39,3,.5-1-1-.5-.5,1Zm.8-1-.56,1.09h0l-.12.24-.12-.06-1.21-.62-.12-.06.06-.12.62-1.21.06-.12.12.06.46.23.16-.29.23.13-.16.29.51.26.12.06Zm2.28-7V6.19h-1.1V7.29ZM22.81,8l-3.18,1h-.06l-4.24-.64,3.4,1.91.9-.51-.08-.22.25-.09.06.18ZM19,10.52l1.07.6-.35-1Z"/><circle class="cls-5" cx="24.79" cy="7.47" r="0.64"/><circle class="cls-5" cx="17.69" cy="11.27" r="0.67"/><circle class="cls-5" cx="19.65" cy="9.15" r="0.63"/><circle class="cls-6" cx="12.61" cy="13.01" r="0.63"/><circle class="cls-7" cx="23.97" cy="10.13" r="0.64"/><circle class="cls-8" cx="14.58" cy="8.41" r="0.64"/><circle class="cls-8" cx="26.66" cy="10.08" r="0.64"/><circle class="cls-8" cx="20.64" cy="11.66" r="0.64"/><path class="cls-4" d="M6.73,26.37a.61.61,0,0,0,.62-.64.67.67,0,0,0-.62-.7.64.64,0,0,0-.58.7A.58.58,0,0,0,6.73,26.37Z"/><path class="cls-4" d="M10.45,28.22a.62.62,0,0,0,.64-.64.59.59,0,0,0-.64-.57.57.57,0,0,0-.61.57C9.83,28.42,10.29,28.2,10.45,28.22Z"/><path class="cls-4" d="M8.35,28.67A.68.68,0,0,0,9,28a.63.63,0,0,0-.64-.61.58.58,0,0,0-.58.61A.62.62,0,0,0,8.35,28.67Z"/><path class="cls-4" d="M16.53,26a.68.68,0,0,0,.65-.66.6.6,0,0,0-.65-.57c-.34,0-.76.14-.61.59S16.18,26,16.53,26Z"/><path class="cls-4" d="M13,26.77a.58.58,0,0,0,.57-.58.56.56,0,0,0-.57-.56.52.52,0,0,0-.52.56A.54.54,0,0,0,13,26.77Z"/><path class="cls-4" d="M11.32,26.3c.34.07.6-.29.6-.63a.61.61,0,0,0-.6-.63.62.62,0,0,0-.61.63C10.71,26,10.7,26.16,11.32,26.3Z"/><path class="cls-4" d="M15,24.06c.34,0,.61-.09.61-.43A.65.65,0,0,0,15,23a.63.63,0,0,0-.65.6C14.31,24,14.68,24.06,15,24.06Z"/><path class="cls-4" d="M16.78,23.15a.64.64,0,0,0,.65-.61.65.65,0,0,0-1.3,0A.64.64,0,0,0,16.78,23.15Z"/><path class="cls-9" d="M6.21,28.7a.44.44,0,0,0,.45-.46.48.48,0,0,0-.45-.51.46.46,0,0,0-.42.51A.42.42,0,0,0,6.21,28.7Z"/><path class="cls-9" d="M11.57,23.78A.49.49,0,0,0,12,23.3a.46.46,0,0,0-.47-.44.42.42,0,0,0-.42.44A.45.45,0,0,0,11.57,23.78Z"/><path class="cls-9" d="M9.46,25.92c.25,0,.44-.06.44-.31a.47.47,0,0,0-.48-.43.45.45,0,0,0-.47.43C8.95,25.86,9.21,25.92,9.46,25.92Z"/><path class="cls-9" d="M14.94,27a.46.46,0,0,0,.47-.44.47.47,0,0,0-.94,0A.46.46,0,0,0,14.94,27Z"/><path class="cls-9" d="M23.84,27.24a.9.9,0,0,0,.88-.89.91.91,0,0,0-.9-.89.83.83,0,0,0-.8.89A.85.85,0,0,0,23.84,27.24Z"/><path class="cls-9" d="M22.8,24.25a.94.94,0,0,0,.92-.9.9.9,0,0,0-.92-.85.83.83,0,0,0-.84.85A.87.87,0,0,0,22.8,24.25Z"/><path class="cls-9" d="M27.92,24.48a.82.82,0,0,0,.85-.83.8.8,0,0,0-.85-.8.75.75,0,0,0-.79.8A.78.78,0,0,0,27.92,24.48Z"/><path class="cls-9" d="M26.11,26.17a.92.92,0,0,0,.86-.93.8.8,0,0,0-.86-.78.87.87,0,0,0-.95.78A1,1,0,0,0,26.11,26.17Z"/></g></g></svg>