<svg xmlns="http://www.w3.org/2000/svg" viewBox="0 0 106.81 42"><defs><style>.cls-1{fill-rule:evenodd;}</style></defs><title>cit</title><g id="Layer_2" data-name="Layer 2"><g id="Layer_1-2" data-name="Layer 1"><polygon class="cls-1" points="30.25 10.16 30.25 15.81 35.09 15.81 35.09 32.19 41.61 32.19 41.61 15.81 46.74 15.81 46.74 10.16 30.25 10.16 30.25 10.16"/><polyline class="cls-1" points="30.25 10.16 30.25 15.81 35.09 15.81 35.09 32.19 41.61 32.19 41.61 15.81 46.74 15.81 46.74 10.16"/><rect x="69.26" y="10.15" width="6.19" height="22.04"/><polygon class="cls-1" points="92.99 20.18 100.21 10.16 92.3 10.16 89.23 14.82 86.65 10.16 78.73 10.16 85.26 20.18 76.65 32.19 84.57 32.19 89.23 25.64 92.79 32.19 100.71 32.19 92.99 20.18 92.99 20.18"/><polyline class="cls-1" points="92.99 20.18 100.21 10.16 92.3 10.16 89.23 14.82 86.65 10.16 78.73 10.16 85.26 20.18 76.65 32.19 84.57 32.19 89.23 25.64 92.79 32.19 100.71 32.19"/><path class="cls-1" d="M0,21.17A11.53,11.53,0,0,0,11.49,32.7a12,12,0,0,0,8.44-3.53l-3.52-5.64a5.54,5.54,0,0,1-4.93,2.59,4.78,4.78,0,0,1-4.69-5A5,5,0,0,1,11.49,16a5.74,5.74,0,0,1,4.93,2.83l3.52-5.64a12,12,0,0,0-8.44-3.54A11.53,11.53,0,0,0,0,21.17"/><path class="cls-1" d="M55,14.84c1.17,0,2.79.24,3.49.94a2,2,0,0,1,.47,1.64c0,1.88-1.17,2.58-4,2.58m5.82,3.28c2.56-.7,4.18-3,4.18-6.1a6.73,6.73,0,0,0-1.86-4.92,8.28,8.28,0,0,0-6-2.1H48.46v22H55V25.62l4.19,6.56h8.37L60.8,23.28Z"/><rect x="21.83" y="10.15" width="6.53" height="22.04"/><path class="cls-1" d="M21.14,4.22a4.13,4.13,0,1,1,8.25,0,4.13,4.13,0,1,1-8.25,0Z"/><path class="cls-1" d="M68.23,37.87A4.12,4.12,0,1,1,72.36,42a4.12,4.12,0,0,1-4.12-4.13Z"/><path d="M104.29,14.94a2.52,2.52,0,1,1,2.52-2.52A2.52,2.52,0,0,1,104.29,14.94Zm0-4.69a2.09,2.09,0,0,0-2.14,2.17,2.14,2.14,0,1,0,4.28,0A2.09,2.09,0,0,0,104.29,10.25Zm.74,3.68-.74-1.08c-.15-.22-.24-.3-.48-.3v1.37h-.44V10.87h1a.85.85,0,0,1,.94.86c0,.45-.3.72-.81.79a1.74,1.74,0,0,1,.36.4l.71,1Zm-.76-2.68h-.45v1h.31c.34,0,.71,0,.71-.48C104.84,11.45,104.69,11.25,104.27,11.25Z"/></g></g></svg>