<svg xmlns="http://www.w3.org/2000/svg" xmlns:xlink="http://www.w3.org/1999/xlink" viewBox="0 0 182.37 32"><defs><style>.cls-1{fill:none;}.cls-2{clip-path:url(#clip-path);}.cls-3{clip-path:url(#clip-path-2);}.cls-4{fill:#818181;}.cls-5{fill:#097db9;}</style><clipPath id="clip-path" transform="translate(-401.22 -72)"><rect class="cls-1" x="401.22" y="72" width="182.37" height="32"/></clipPath><clipPath id="clip-path-2" transform="translate(-401.22 -72)"><rect class="cls-1" width="987.2" height="176"/></clipPath></defs><title>dell</title><g id="Layer_2" data-name="Layer 2"><g id="Layer_1-2" data-name="Layer 1"><g class="cls-2"><g class="cls-3"><path class="cls-4" d="M572.72,102.49c5.64,0,10.06-2.82,10.87-8.86l-.4-.4h-1.61l-.4.4c-.8,4.43-3.62,6.84-8.45,6.84-6,0-10.47-4.43-10.47-12.48s4.43-12.48,10.47-12.48c4.83,0,7.65,2.41,8.45,6.44l.4.4h1.61l.4-.4c-.8-5.64-5.23-8.45-10.87-8.45-6.84,0-12.88,4.83-12.88,14.49s6,14.49,12.88,14.49M555,101.68V74.31l-.4-.4h-2.82l-.4.4L540.92,98.87h-.4L530.05,74.31l-.4-.4h-2.82l-.4.4v27.37l.4.4h1.61l.4-.4V78.34h.4l10.06,23.35.4.4h2l.4-.4,10.06-23.35h.4v23.35l.4.4h1.61Zm-33.81,0v-1.21l-.4-.4H505.9l-.4-.4V89.21l.4-.4H520l.4-.4V87.2l-.4-.4H505.9l-.4-.4V76.32l.4-.4H520.8l.4-.4V74.31l-.4-.4H503.49l-.4.4v27.37l.4.4H520.8Z" transform="translate(-401.22 -72)"/><path class="cls-5" d="M496.68,96.49v5.6H478.51V73.91h6.4V96.49ZM478.51,73.91h6.4m-72.27,28.18a14.09,14.09,0,0,0,13.64-10.54L442.22,104l15.93-12.45v10.54h18.18v-5.6H464.55V73.91h-6.4V84.45L442.87,96.39l-3.42-2.67L446.77,88l8-6.22-4.55-3.55L434.9,90.16l-3.42-2.67,15.28-11.94L442.22,72,426.28,84.46a14.09,14.09,0,0,0-13.64-10.54H401.22v28.18Zm-5-5.6v-17h5c4.25,0,7.69,3.8,7.69,8.49s-3.44,8.49-7.69,8.49Z" transform="translate(-401.22 -72)"/></g></g></g></g></svg>