<svg xmlns="http://www.w3.org/2000/svg" viewBox="0 0 266.64 32"><defs><style>.cls-1,.cls-2{fill-rule:evenodd;}.cls-2{fill:#ee3026;}</style></defs><title>for</title><g id="Layer_2" data-name="Layer 2"><g id="Layer_1-2" data-name="Layer 1"><path class="cls-1" d="M0,.31l.67,0H33V7H7.36v5.05H29.43v6.45H7.35V30.23a3.37,3.37,0,0,1-.39.05H.25a1.62,1.62,0,0,1-.25,0Z"/><path class="cls-2" d="M63.59,0q0,3.81,0,7.63c0,.26-.11.38-.37.37H63c-3.56,0-7.12,0-10.67,0-.49,0-.64-.13-.64-.64,0-2.46,0-4.91,0-7.37Z"/><path class="cls-2" d="M74.43,0a15.07,15.07,0,0,1,2.2,1.55,9,9,0,0,1,2.5,5.88c0,.42-.1.59-.54.58Q73,8,67.51,8c-.43,0-.59-.14-.59-.6,0-2.27,0-4.54,0-6.8,0-.2,0-.41,0-.61Z"/><path class="cls-2" d="M48.41,0c0,2.44,0,4.88,0,7.33,0,.51-.13.68-.65.68-3.66,0-7.33,0-11,0-.23,0-.47,0-.51-.33C36,5.15,38.12,1.42,40.39.33L41.08,0Z"/><path class="cls-1" d="M262.61,32a4.22,4.22,0,0,1-2.35-1.25,3.73,3.73,0,0,1-.48-4.14,3.64,3.64,0,0,1,6.76,1c0,.11.06.23.1.34v.72c0,.13-.07.26-.1.39a3.55,3.55,0,0,1-2.13,2.58,9,9,0,0,1-1.17.33Zm.4-6.83a3.15,3.15,0,0,0-3.21,3.08,3.2,3.2,0,0,0,3.17,3.3,3.25,3.25,0,0,0,3.21-3.18A3.19,3.19,0,0,0,263,25.17Z"/><path class="cls-1" d="M115.56,17.09a3.5,3.5,0,0,1,2,3.27c.08,3.21,0,6.43.05,9.65a1.75,1.75,0,0,1,0,.24h-7.06v-.56q0-4.64,0-9.29c0-1.22-.48-1.74-1.68-1.81-.53,0-1.06-.06-1.6-.06H91.82V30.25h-7.3V.34h.61c7.55,0,15.1,0,22.65,0a17.52,17.52,0,0,1,4.75.57c2.91.82,4.79,2.66,5.16,5.69a37.35,37.35,0,0,1,.17,6.12,6.14,6.14,0,0,1-1.94,3.95l-.32.33A.43.43,0,0,0,115.56,17.09Zm-23.71-5,.49,0h15a17.77,17.77,0,0,0,2-.1,1.44,1.44,0,0,0,1.31-1.42c0-.67,0-1.34,0-2a1.44,1.44,0,0,0-1.2-1.42,6.2,6.2,0,0,0-1.18-.1H92.39l-.55,0Z"/><path class="cls-1" d="M204.17,30.25V.37h29.4V7H211.49v5.08h15.35v6.44H211.49V23.6H233.7v6.65Z"/><path class="cls-1" d="M172.91,7V30.26h-7.31V.34h.56q11.54,0,23.07,0a11.16,11.16,0,0,1,5.08,1.17,8.32,8.32,0,0,1,4.38,6.16,18.59,18.59,0,0,1,.36,3.63c0,6.14,0,12.28,0,18.43,0,.17,0,.33,0,.53h-7.31v-.78q0-9.55,0-19.1a8.57,8.57,0,0,0-.22-1.88A2,2,0,0,0,189.74,7a2.92,2.92,0,0,0-.57,0H173.44Z"/><path class="cls-1" d="M128.63,7h-6.88V.36h27.38V7H136V30.25h-7.33Z"/><path class="cls-1" d="M237.22,7V.37h27.42V7H251.45V30.24h-7.32V7Z"/><path class="cls-1" d="M160.07,30.26h-7.27V.37h7.27Z"/><path class="cls-2" d="M73,19.28c-1.84,0-3.68,0-5.51,0-.42,0-.57-.11-.56-.55q0-3.48,0-7c0-.38.11-.51.5-.51q5.62,0,11.24,0c.34,0,.46.12.46.44q0,3.56,0,7.11c0,.37-.16.46-.51.45-1.87,0-3.74,0-5.62,0Z"/><path class="cls-2" d="M48.37,11.32v7.93l-.52,0c-3.66,0-7.33,0-11,0-.49,0-.61-.15-.6-.61q0-3.43,0-6.86c0-.4.11-.53.52-.53,3.71,0,7.43,0,11.14,0C48.06,11.28,48.2,11.3,48.37,11.32Z"/><path class="cls-2" d="M51.76,30.51V22.65c.19,0,.38,0,.56,0,3.58,0,7.16,0,10.74,0,.47,0,.58.16.57.59,0,2.27,0,4.54,0,6.81,0,.32,0,.55-.45.55-3.71,0-7.43,0-11.15,0Z"/><path class="cls-2" d="M67,30.55v-7.9c.18,0,.34,0,.5,0,3.7,0,7.39,0,11.09,0,.46,0,.62.14.57.59-.28,2.86-1.26,5.33-3.79,7a2.55,2.55,0,0,1-1.46.4c-2.12,0-4.23,0-6.35,0Z"/><path class="cls-2" d="M48.37,22.65v7.86l-.55,0c-1.94,0-3.89-.07-5.83,0a4,4,0,0,1-3.19-1.38,9.15,9.15,0,0,1-2.44-5.12c-.07-.45-.09-.91-.14-1.41Z"/><path class="cls-1" d="M262.14,28.56v1.65l-.49,0v-4c.7,0,1.37,0,2,0a.89.89,0,0,1,.93.6,1.13,1.13,0,0,1-.22,1.24s-.09.1,0,.13l.38,2c-.43.14-.62,0-.66-.42-.1-1.11.13-1.28-1.38-1.24Zm0-.51c.51,0,1,0,1.39,0a.61.61,0,0,0,.59-.66c0-.33-.1-.61-.45-.64-.5,0-1,0-1.53,0Z"/></g></g></svg>