<svg xmlns="http://www.w3.org/2000/svg" viewBox="0 0 42 42"><defs><style>.cls-1{fill:#00a4e4;}</style></defs><title>hp</title><g id="Layer_2" data-name="Layer 2"><g id="Layer_1-2" data-name="Layer 1"><path class="cls-1" d="M21,42h-.62L24.67,30.2h5.91a2.9,2.9,0,0,0,2.53-1.77l4.66-12.79a2.66,2.66,0,0,0-2.67-3.81H26.9L20,30.72h0l-3.9,10.71A21,21,0,0,1,15.33.78l-4,11.05h0L4.62,30.2H9.07l5.69-15.61H18.1L12.42,30.2h4.45l5.3-14.56a2.66,2.66,0,0,0-2.66-3.81H15.76L20.06,0,21,0a21,21,0,0,1,0,42ZM33.71,14.58H30.36L25.68,27.43H29Z"/></g></g></svg>