<svg xmlns="http://www.w3.org/2000/svg" viewBox="0 0 101.05 42"><defs><style>.cls-1{fill:#00b48d;}.cls-2{fill:#231f20;}</style></defs><title>hpe</title><g id="Layer_2" data-name="Layer 2"><g id="Layer_1-2" data-name="Layer 1"><path class="cls-1" d="M34.71,10H0V0H34.71ZM2.28,7.69H32.43V2.28H2.28Z"/><path class="cls-2" d="M8.39,16.26v9.59h-2v-4H2.05v4h-2V16.26h2v3.81H6.39V16.26Z"/><path class="cls-2" d="M11.58,22.81a1.81,1.81,0,0,0,2,1.61,3.38,3.38,0,0,0,2-.61V25.4a3.84,3.84,0,0,1-2.3.61,3.37,3.37,0,0,1-3.58-3.59c0-2.19,1.37-3.7,3.28-3.7s3.08,1.41,3.08,3.47v.62Zm.06-1.27h2.64A1.21,1.21,0,0,0,13,20.26,1.46,1.46,0,0,0,11.64,21.54Z"/><path class="cls-2" d="M23.61,23.32l1.25-4.45h1.87l-2.12,7H22.83l-1.14-4.28-1.14,4.28H18.77l-2.12-7h1.94l1.25,4.45L21,18.87h1.48Z"/><path class="cls-2" d="M33.77,22.81a1.81,1.81,0,0,0,2,1.61,3.38,3.38,0,0,0,2-.61V25.4a3.84,3.84,0,0,1-2.3.61,3.37,3.37,0,0,1-3.58-3.59c0-2.19,1.37-3.7,3.28-3.7s3.08,1.41,3.08,3.47v.62Zm.06-1.27h2.64a1.21,1.21,0,0,0-1.23-1.28A1.46,1.46,0,0,0,33.84,21.54Z"/><path class="cls-2" d="M54,22.53v3.33H52V16.26h3.91c2,0,3.37,1.09,3.37,3.14S58,22.53,55.94,22.53ZM55.81,18H54v2.86h1.8a1.43,1.43,0,1,0,0-2.86Z"/><path class="cls-2" d="M64.06,21.49c0-.67-.58-1.09-1.56-1.09a3.46,3.46,0,0,0-1.91.56V19.29a4.76,4.76,0,0,1,2.33-.58c1.92,0,3,1,3,2.69v4.45H64.06v-.37a2.72,2.72,0,0,1-1.69.5,2.32,2.32,0,0,1-2.58-2.27c0-1.33,1.17-2.23,2.7-2.23a3.12,3.12,0,0,1,1.56.41Zm0,2a1.34,1.34,0,0,0-1.23-.61c-.61,0-1.23.27-1.23.86s.62.86,1.23.86a1.34,1.34,0,0,0,1.23-.61Z"/><path class="cls-2" d="M70.86,18.71a3.07,3.07,0,0,1,1.89.55V21a2.41,2.41,0,0,0-1.66-.62,1.81,1.81,0,0,0-1.84,2,1.81,1.81,0,0,0,1.84,2,2.48,2.48,0,0,0,1.66-.62v1.75a3.07,3.07,0,0,1-1.89.55,3.43,3.43,0,0,1-3.53-3.64A3.44,3.44,0,0,1,70.86,18.71Z"/><path class="cls-2" d="M81,25.85H78.78l-2.52-3.22v3.22H74.33V15.7h1.94v5.94l2.39-2.77H81l-2.91,3.2Z"/><path class="cls-2" d="M85.59,21.49c0-.67-.58-1.09-1.56-1.09a3.46,3.46,0,0,0-1.91.56V19.29a4.76,4.76,0,0,1,2.33-.58c1.92,0,3,1,3,2.69v4.45H85.59v-.37a2.72,2.72,0,0,1-1.69.5,2.32,2.32,0,0,1-2.58-2.27c0-1.33,1.17-2.23,2.7-2.23a3.12,3.12,0,0,1,1.56.41Zm0,2a1.34,1.34,0,0,0-1.23-.61c-.61,0-1.23.27-1.23.86s.62.86,1.23.86a1.34,1.34,0,0,0,1.23-.61Z"/><path class="cls-2" d="M93.53,20.78a1.93,1.93,0,0,0-1-.23,1.26,1.26,0,0,0-1.33,1v4.33H89.3v-7h1.94v.69a1.79,1.79,0,0,1,1.56-.84,1.82,1.82,0,0,1,.73.12Z"/><path class="cls-2" d="M99.09,25.28a2.41,2.41,0,0,1-1.75.73c-2,0-3.17-1.64-3.17-3.64s1.14-3.66,3.17-3.66a2.4,2.4,0,0,1,1.75.73V15.7h2V25.85h-2Zm0-4.06a1.48,1.48,0,0,0-1.31-.81,1.74,1.74,0,0,0-1.67,2,1.73,1.73,0,0,0,1.67,2,1.43,1.43,0,0,0,1.31-.81Z"/><path class="cls-2" d="M30.88,24.66a.86.86,0,0,1-1-.94h0V16.33H28v7.49a2.29,2.29,0,0,0,2.47,2.48,2.61,2.61,0,0,0,1.08-.19V24.47A1.2,1.2,0,0,1,30.88,24.66Z"/><path class="cls-2" d="M46.84,20.75H48.6V19.17H46.84V16.33H44.9v2.84H42.1V16.33H40.17v2.84H38.9v1.58h1.27v3.07a2.29,2.29,0,0,0,2.47,2.48,2.61,2.61,0,0,0,1.08-.19V24.47a1.2,1.2,0,0,1-.69.19.86.86,0,0,1-1-.94h0v-3h2.8v3.07a2.29,2.29,0,0,0,2.47,2.48,2.61,2.61,0,0,0,1.08-.19V24.47a1.2,1.2,0,0,1-.69.19.86.86,0,0,1-1-.94h0Z"/><path class="cls-2" d="M6.31,29.66v1.1H1.39v3.05H5.86v1.1H1.39v3.29H6.31v1.12H.16V29.66Z"/><path class="cls-2" d="M8.17,32.33H9.35v.88a2.61,2.61,0,0,1,2.06-1,2.31,2.31,0,0,1,2.46,2.55v4.58h-1.2V34.93a1.46,1.46,0,0,0-1.54-1.65,1.9,1.9,0,0,0-1.78,1.31v4.74H8.17Z"/><path class="cls-2" d="M21.41,36a2.23,2.23,0,0,0,2.35,2.39,3,3,0,0,0,2-.66v1.09a3.36,3.36,0,0,1-2.12.61,3.26,3.26,0,0,1-3.37-3.57c0-2.17,1.26-3.7,3.12-3.7s2.86,1.37,2.86,3.42V36Zm.06-.93h3.6c0-1-.57-1.9-1.7-1.9C22.45,33.2,21.69,33.81,21.47,35.11Z"/><path class="cls-2" d="M31.42,33.52a1.5,1.5,0,0,0-.79-.19A1.69,1.69,0,0,0,29,34.63v4.69H27.83v-7H29v.91a2,2,0,0,1,1.73-1.05,1.71,1.71,0,0,1,.68.11Z"/><path class="cls-2" d="M33.83,42H32.65V32.33h1.18v.82a2.48,2.48,0,0,1,2-1c2.06,0,3.15,1.7,3.15,3.64s-1.09,3.64-3.15,3.64a2.48,2.48,0,0,1-2-1Zm0-4.75a2,2,0,0,0,1.79,1.15c1.34,0,2.13-1.09,2.13-2.57s-.79-2.57-2.13-2.57a2,2,0,0,0-1.79,1.15Z"/><path class="cls-2" d="M44.38,33.52a1.5,1.5,0,0,0-.79-.19A1.69,1.69,0,0,0,42,34.63v4.69H40.79v-7H42v.91a2,2,0,0,1,1.73-1.05,1.71,1.71,0,0,1,.68.11Z"/><path class="cls-2" d="M46.42,31a.77.77,0,0,1-.76-.76.76.76,0,0,1,1.53,0A.77.77,0,0,1,46.42,31Zm.6,8.34H45.84v-7H47Z"/><path class="cls-2" d="M48.72,37.51a3.38,3.38,0,0,0,2.3.94c.77,0,1.45-.28,1.45-1,0-.52-.39-.8-1-1l-1-.33c-1.05-.35-1.76-.85-1.76-2s1.09-2,2.47-2a3.64,3.64,0,0,1,2.08.61V34a3.13,3.13,0,0,0-2.08-.83c-.72,0-1.32.31-1.32.91s.38.76,1,1l1.07.36a2,2,0,0,1,1.64,2c0,1.29-1.15,2-2.61,2a3.87,3.87,0,0,1-2.3-.69Z"/><path class="cls-2" d="M56,36a2.23,2.23,0,0,0,2.35,2.39,3,3,0,0,0,2-.66v1.09a3.36,3.36,0,0,1-2.13.61,3.26,3.26,0,0,1-3.37-3.57c0-2.17,1.26-3.7,3.12-3.7s2.86,1.37,2.86,3.42V36Zm.06-.93h3.6c0-1-.57-1.9-1.7-1.9C57,33.2,56.26,33.81,56,35.11Z"/><path class="cls-2" d="M18.71,38.43a1.11,1.11,0,0,1-1.15-1.28v-.6h0V33.33h1.85v-1H17.59V30.61H16.4v1.74H14.79v1H16.4v3.91a2.05,2.05,0,0,0,2.14,2.22,2.26,2.26,0,0,0,.91-.16V38.24A1.36,1.36,0,0,1,18.71,38.43Z"/></g></g></svg>