<svg xmlns="http://www.w3.org/2000/svg" xmlns:xlink="http://www.w3.org/1999/xlink" viewBox="0 0 128 128"><defs><style>.a{fill:#fffaeb;}.b{fill:url(#a);}</style><linearGradient id="a" x1="0.5" x2="0.5" y2="1" gradientUnits="objectBoundingBox"><stop offset="0" stop-color="#ffcb31"/><stop offset="1" stop-color="#fd8b7c"/></linearGradient></defs><g transform="translate(-777.164 -811)"><path class="a" d="M64,0A64,64,0,1,1,0,64,64,64,0,0,1,64,0Z" transform="translate(777.164 811)"/><g transform="translate(804.593 838.429)"><path class="b" d="M60.68,68.857H42.6a6.39,6.39,0,0,1-12.068,0H12.463a6.429,6.429,0,1,1,0-4.287H30.537a6.421,6.421,0,0,1,3.892-3.89V55.714H10.714a6.409,6.409,0,0,1-6.043-4.285h63.8a6.409,6.409,0,0,1-6.043,4.285H38.714V60.68a6.416,6.416,0,0,1,3.89,3.89H60.68a6.429,6.429,0,1,1,0,4.287ZM4.286,47.143A4.286,4.286,0,0,1,0,42.857V34.286A4.285,4.285,0,0,1,4.286,30H68.857a4.285,4.285,0,0,1,4.285,4.285v8.571a4.286,4.286,0,0,1-4.285,4.287Zm34.429-8.572a2.142,2.142,0,0,0,2.143,2.143H62.428a2.143,2.143,0,1,0,0-4.285H40.857A2.141,2.141,0,0,0,38.714,38.571Zm-12.858,0A2.143,2.143,0,1,0,28,36.429,2.143,2.143,0,0,0,25.857,38.571Zm-8.715,0a2.143,2.143,0,1,0,2.143-2.142A2.144,2.144,0,0,0,17.142,38.571Zm-8.571,0a2.143,2.143,0,1,0,2.143-2.142A2.143,2.143,0,0,0,8.571,38.571ZM4.286,25.714V21.428H68.857v4.285Zm0-8.571A4.3,4.3,0,0,1,0,12.858V4.285A4.3,4.3,0,0,1,4.286,0H68.857a4.286,4.286,0,0,1,4.285,4.285v8.572a4.286,4.286,0,0,1-4.285,4.285ZM38.714,8.572a2.142,2.142,0,0,0,2.143,2.142H62.428a2.143,2.143,0,1,0,0-4.285H40.857A2.142,2.142,0,0,0,38.714,8.572Zm-12.858,0A2.143,2.143,0,1,0,28,6.429,2.142,2.142,0,0,0,25.857,8.572Zm-8.715,0a2.143,2.143,0,1,0,2.143-2.143A2.143,2.143,0,0,0,17.142,8.572Zm-8.571,0a2.143,2.143,0,1,0,2.143-2.143A2.142,2.142,0,0,0,8.571,8.572Z" transform="translate(0 0)"/></g></g></svg>