<svg xmlns="http://www.w3.org/2000/svg" xmlns:xlink="http://www.w3.org/1999/xlink" viewBox="0 0 127.997 127.997"><defs><style>.a{fill:#fffaeb;}.b{fill:url(#a);}</style><linearGradient id="a" x1="0.5" x2="0.5" y2="1" gradientUnits="objectBoundingBox"><stop offset="0" stop-color="#ffcb31"/><stop offset="1" stop-color="#fd8b7c"/></linearGradient></defs><g transform="translate(-276 -1731)"><path class="a" d="M64,0A64,64,0,1,1,0,64,64,64,0,0,1,64,0Z" transform="translate(276 1731)"/><path class="b" d="M19.667,74.417V70.874h6.911V60.242H0V0H85.048V60.242H56.7V70.874h5.67v3.543Zm33.488-3.543V60.242H30.121V70.874ZM3.545,56.7H81.5V3.543H3.545Zm67.328-3.721V35.438h3.545v17.54Zm-8.859,0V35.438h3.543v17.54Zm-8.858,0V21.263H56.7V52.978Zm-10.632,0V35.438h3.546v17.54Zm-12.4,0V42.524h3.544V52.978Zm-10.629,0V35.438h3.541v17.54Zm-10.633,0V40.752H12.4V52.978Zm12.4-23.92-10.1,9.037-2.3-2.481L21.263,24.1l10.1,10.277L55.635,9.037,65.557,28l8.151-.532.178,3.543-10.455.71L54.748,15.061,31.362,39.335Z" transform="translate(298.325 1757.79)"/></g></svg>