<svg xmlns="http://www.w3.org/2000/svg" xmlns:xlink="http://www.w3.org/1999/xlink" viewBox="0 0 128 128"><defs><style>.a{fill:#fffaeb;}.b{fill:url(#a);}</style><linearGradient id="a" x1="0.5" x2="0.5" y2="1" gradientUnits="objectBoundingBox"><stop offset="0" stop-color="#ffcb31"/><stop offset="1" stop-color="#fd8b7c"/></linearGradient></defs><g transform="translate(-531 -1755)"><path class="a" d="M64,0A64,64,0,1,1,0,64,64,64,0,0,1,64,0Z" transform="translate(531 1755)"/><g transform="translate(557.791 1781.791)"><path class="b" d="M68.753,74.418V67.182a5.983,5.983,0,0,0-5.82-6.137,6.086,6.086,0,0,0-5.821,6.137v7.236H53.965V67.182A9.136,9.136,0,0,1,62.933,57.9a5.883,5.883,0,0,1-5.821-6.135A5.828,5.828,0,1,1,62.933,57.9,9.24,9.24,0,0,1,71.9,67.182v7.236Zm-8.5-22.5a2.835,2.835,0,0,0,2.675,2.989,2.738,2.738,0,0,0,2.675-2.989,2.836,2.836,0,0,0-2.675-2.99A2.738,2.738,0,0,0,60.258,51.92ZM15.89,72.846V65.608a5.982,5.982,0,0,0-5.821-6.135,6.085,6.085,0,0,0-5.82,6.135v7.238H1.1V65.608a9.139,9.139,0,0,1,8.969-9.283,9.239,9.239,0,0,1,8.968,9.283v7.238ZM46.145,50.431l1.882-2.522,7.944,5.927L54.089,56.36Zm-41.9-.242a5.982,5.982,0,0,1,5.82-6.135A5.982,5.982,0,0,1,15.89,50.19a5.884,5.884,0,0,1-5.821,6.135A5.883,5.883,0,0,1,4.249,50.19Zm3.145.156a2.834,2.834,0,0,0,2.675,2.99,2.737,2.737,0,0,0,2.674-2.99,2.835,2.835,0,0,0-2.674-2.989A2.738,2.738,0,0,0,7.394,50.346Zm9.118,2.479,8.443-5.488,1.714,2.639-8.444,5.488Zm25.811-5.154V40.435A5.983,5.983,0,0,0,36.5,34.3a6.087,6.087,0,0,0-5.82,6.137v7.236H27.533V40.435A9.137,9.137,0,0,1,36.5,31.152a9.239,9.239,0,0,1,8.969,9.283v7.236Zm3.011-12.988,8.767-6.4,1.857,2.541-8.767,6.4ZM18,29.749l1.87-2.531,8.224,6.077-1.869,2.531Zm12.68-4.732a5.83,5.83,0,1,1,11.643,0A5.983,5.983,0,0,1,36.5,31.152,5.883,5.883,0,0,1,30.68,25.017Zm3.146.156a2.835,2.835,0,0,0,2.674,2.99,2.739,2.739,0,0,0,2.675-2.99A2.834,2.834,0,0,0,36.5,22.184,2.738,2.738,0,0,0,33.826,25.173ZM14.788,28.95V21.556a5.983,5.983,0,0,0-5.82-6.137,6.086,6.086,0,0,0-5.821,6.137v7.236H0V21.556a9.181,9.181,0,0,1,7.919-9.22A5.934,5.934,0,0,1,3.147,6.294,5.981,5.981,0,0,1,8.968.158a5.982,5.982,0,0,1,5.82,6.135,6.048,6.048,0,0,1-4.8,6.041,9.3,9.3,0,0,1,7.951,9.221V28.95ZM6.294,6.294a2.835,2.835,0,0,0,2.674,2.99,2.738,2.738,0,0,0,2.674-2.99A2.835,2.835,0,0,0,8.968,3.3,2.738,2.738,0,0,0,6.294,6.294Zm65.136,22.5V21.556a5.983,5.983,0,0,0-5.822-6.137,6.087,6.087,0,0,0-5.821,6.137v7.236H56.639V21.556a9.138,9.138,0,0,1,8.969-9.283,9.238,9.238,0,0,1,8.968,9.283v7.236ZM59.785,6.137a5.83,5.83,0,1,1,11.644,0,5.83,5.83,0,1,1-11.644,0Zm3.147.156a2.835,2.835,0,0,0,2.675,2.99,2.739,2.739,0,0,0,2.674-2.99,2.691,2.691,0,1,0-5.349,0Z"/></g></g></svg>