<svg xmlns="http://www.w3.org/2000/svg" viewBox="0 0 63.72 42"><defs><style>.cls-1{fill:#0079bd;fill-rule:evenodd;}</style></defs><title>intel</title><g id="Layer_2" data-name="Layer 2"><g id="Layer_1-2" data-name="Layer 1"><path class="cls-1" d="M0,24.64v1.7a13.79,13.79,0,0,0,2.4,7.48A16.09,16.09,0,0,0,7.69,38.4,26,26,0,0,0,14.92,41a44.32,44.32,0,0,0,8.92,1h1.65a62.31,62.31,0,0,0,27.4-6.53V30.64a38.19,38.19,0,0,1-6.15,2.88c-.45.14-1.15.44-1.61.62s-1.14.35-1.71.58a29.13,29.13,0,0,1-3.52,1c-1.22.26-2.38.59-3.66.85s-2.5.41-3.87.65-2.77.3-4.12.39-2.88.16-4.41.16h-.32c-5.44,0-10.63-.86-14.27-2.67S2.5,30.09,2.5,24.9v-.48A15.59,15.59,0,0,1,4,18.34a15,15,0,0,1,1.34-2.43c.28-.42.5-.72.8-1.12s.67-.74.87-1v-1.7A18.18,18.18,0,0,0,4.5,14.48a19.88,19.88,0,0,0-2.09,2.79A16.28,16.28,0,0,0,0,24.64Z"/><path class="cls-1" d="M63.72,15.45V13.91s-.25-1.72-.29-1.94a9.87,9.87,0,0,0-.49-1.74,11.48,11.48,0,0,0-1.6-2.92,15,15,0,0,0-4.88-4.09C52.83,1.22,47.32,0,41.68,0H41.2A53.88,53.88,0,0,0,26,2.25c-1.2.34-2.18.69-3.29,1.06a28,28,0,0,0-3.12,1.24c-1,.49-2,.92-3,1.4-.51.26-2.49,1.47-2.81,1.54V8.76c.44-.1,2.05-1,2.67-1.26.86-.37,1.94-.91,2.81-1.17.39-.12,1-.37,1.43-.53s1-.33,1.47-.49c1-.32,2-.68,3-.94,2.18-.55,4.11-1,6.5-1.41A45.52,45.52,0,0,1,39,2.23h2.39C46,2.23,51.05,3.3,54,5a12.77,12.77,0,0,1,4.28,3.42A10.26,10.26,0,0,1,60.42,14v.9a10.87,10.87,0,0,1-2.1,5.86,13.92,13.92,0,0,1-1.87,2.12,13.61,13.61,0,0,1-2.35,1.69v3.5a13.74,13.74,0,0,0,3.58-1.94,14.93,14.93,0,0,0,2.84-2.74,15.68,15.68,0,0,0,2.1-3.48,15.07,15.07,0,0,0,.7-2.06c.09-.3.39-2.41.39-2.42Z"/><path class="cls-1" d="M35.1,21.34V22c0,3.65,2.24,6.32,5.89,6.32h.69a6.41,6.41,0,0,0,2.69-.6,10.52,10.52,0,0,0,1.95-1.43l-2.08-2a3.46,3.46,0,0,1-2.6,1.22H41A2.68,2.68,0,0,1,38.39,23v-.37h8.28V21.24A7.45,7.45,0,0,0,45.33,17a5,5,0,0,0-3.7-2h-1a5.76,5.76,0,0,0-4,2,7.06,7.06,0,0,0-1.52,4.42Zm3.29-1.27v.37h5v-.27A2.39,2.39,0,0,0,41,17.68h-.27a2.55,2.55,0,0,0-2.39,2.39Z"/><path class="cls-1" d="M15.5,28.09h3.24V17.84h2.92A1.14,1.14,0,0,1,22.83,19v9.13h3.29V19a3.6,3.6,0,0,0-3.61-3.82h-7v12.9Z"/><path class="cls-1" d="M28.51,24.27a3.55,3.55,0,0,0,3.56,3.82H34.3V25.33H32.65c-.49,0-.85-.56-.85-1.06V17.84h2.5V15.19h-2.5V11.63H28.51V24.27Z"/><path class="cls-1" d="M48.58,25a3.21,3.21,0,0,0,1,2.14,3.13,3.13,0,0,0,1,.59,7.22,7.22,0,0,0,1.3.3V9.82H48.58V25Z"/><path class="cls-1" d="M9.23,18.21v6.43a3.28,3.28,0,0,0,3.35,3.61V15.19H9.3l-.08,3Z"/><polygon class="cls-1" points="9.29 13.38 12.58 13.38 12.58 10.25 9.29 10.25 9.29 13.38 9.29 13.38"/><path class="cls-1" d="M55.43,9.81a1.35,1.35,0,0,1,.65.17,1.21,1.21,0,0,1,.49.49,1.33,1.33,0,0,1,0,1.32,1.22,1.22,0,0,1-.49.49,1.32,1.32,0,0,1-1.31,0,1.23,1.23,0,0,1-.49-.49,1.32,1.32,0,0,1,0-1.32,1.21,1.21,0,0,1,.49-.49,1.35,1.35,0,0,1,.65-.17Zm0,.22a1.13,1.13,0,0,0-.54.14,1,1,0,0,0-.41.41,1.09,1.09,0,0,0,0,1.1,1,1,0,0,0,.41.41,1.1,1.1,0,0,0,1.09,0,1,1,0,0,0,.41-.41,1.11,1.11,0,0,0,.14-.55,1.12,1.12,0,0,0-.15-.55,1,1,0,0,0-.41-.41,1.12,1.12,0,0,0-.54-.14Zm-.58,1.83V10.44h.49a1.2,1.2,0,0,1,.36,0,.35.35,0,0,1,.18.14.37.37,0,0,1,.07.21.38.38,0,0,1-.11.27.44.44,0,0,1-.29.13.37.37,0,0,1,.12.07,1.57,1.57,0,0,1,.21.28l.17.28h-.28l-.13-.22a1.15,1.15,0,0,0-.24-.33.29.29,0,0,0-.18,0h-.13v.6Zm.23-.8h.28a.45.45,0,0,0,.27-.06.19.19,0,0,0,.07-.16.19.19,0,0,0,0-.11.2.2,0,0,0-.1-.07.71.71,0,0,0-.23,0h-.26v.43Z"/></g></g></svg>