<svg xmlns="http://www.w3.org/2000/svg" viewBox="0 0 134.56 42"><defs><style>.cls-1{fill:#bf2026;}.cls-2{fill:#741a13;}</style></defs><title>mca</title><g id="Layer_2" data-name="Layer 2"><g id="Layer_1-2" data-name="Layer 1"><g id="Type"><path class="cls-1" d="M35.21,39.12h-1V31.59H31.59v-.89h6.27v.89H35.21Z"/><path class="cls-1" d="M44.44,36a3.59,3.59,0,0,1-.81,2.44,2.73,2.73,0,0,1-2.14.89A3.12,3.12,0,0,1,40,39a3,3,0,0,1-1-1.11,4.46,4.46,0,0,1-.37-1.77,3.56,3.56,0,0,1,.74-2.44,2.73,2.73,0,0,1,2.14-.89,2.58,2.58,0,0,1,2.07.89A2.78,2.78,0,0,1,44.44,36Zm-4.8,0a2.75,2.75,0,0,0,.52,1.85,1.71,1.71,0,0,0,1.4.66,1.62,1.62,0,0,0,1.4-.66A3.23,3.23,0,0,0,43.48,36,2.75,2.75,0,0,0,43,34.18a1.57,1.57,0,0,0-1.4-.59,1.78,1.78,0,0,0-1.4.59A3.05,3.05,0,0,0,39.64,36Z"/><path class="cls-1" d="M51.3,32.85v.59l-1.18.15a3.21,3.21,0,0,1,.3.52,2.18,2.18,0,0,1,.15.74,1.86,1.86,0,0,1-.66,1.48,2.49,2.49,0,0,1-1.7.59,1.09,1.09,0,0,1-.52-.07.9.9,0,0,0-.59.81.41.41,0,0,0,.22.37,1.59,1.59,0,0,0,.74.15h1.11a2.42,2.42,0,0,1,1.55.44,1.52,1.52,0,0,1,.52,1.25,2,2,0,0,1-.81,1.62A4.6,4.6,0,0,1,48,42a3.52,3.52,0,0,1-1.92-.44,1.49,1.49,0,0,1-.66-1.33,1.4,1.4,0,0,1,.37-1,2,2,0,0,1,1-.59.89.89,0,0,1-.37-.37,1.07,1.07,0,0,1-.15-.52,1.39,1.39,0,0,1,.15-.59,2.11,2.11,0,0,1,.59-.52,2.31,2.31,0,0,1-.81-.66,1.78,1.78,0,0,1-.3-1.11,2.3,2.3,0,0,1,.59-1.62,2.69,2.69,0,0,1,1.77-.59,3.7,3.7,0,0,1,.89.15Zm-5,7.38a.93.93,0,0,0,.44.81,2.61,2.61,0,0,0,1.25.3A3.52,3.52,0,0,0,49.75,41a1.15,1.15,0,0,0,.59-1,.78.78,0,0,0-.3-.74A2.2,2.2,0,0,0,48.86,39H47.68a1.56,1.56,0,0,0-1,.3A1,1,0,0,0,46.28,40.23Zm.52-5.39a1.6,1.6,0,0,0,.37,1,1.46,1.46,0,0,0,1,.37c1,0,1.4-.44,1.4-1.33a1.22,1.22,0,0,0-1.4-1.4,1.46,1.46,0,0,0-1,.37C46.87,34,46.8,34.4,46.8,34.84Z"/><path class="cls-1" d="M55.21,39.27A2.79,2.79,0,0,1,53,38.38,3.39,3.39,0,0,1,52.19,36a3.56,3.56,0,0,1,.74-2.44,2.53,2.53,0,0,1,2-.89,2.29,2.29,0,0,1,1.85.81,3,3,0,0,1,.66,2.07v.59H53.07a2.36,2.36,0,0,0,.59,1.7,2.06,2.06,0,0,0,1.48.59,4.87,4.87,0,0,0,2-.44v.89a6.86,6.86,0,0,1-1,.3A3.61,3.61,0,0,1,55.21,39.27ZM55,33.51a1.38,1.38,0,0,0-1.18.52,2.66,2.66,0,0,0-.52,1.4h3.32a2.63,2.63,0,0,0-.37-1.4A1.93,1.93,0,0,0,55,33.51Z"/><path class="cls-1" d="M61.27,38.46a1.44,1.44,0,0,0,.52-.07,3.2,3.2,0,0,0,.37-.07V39c-.07.07-.22.07-.44.15s-.37.07-.52.07c-1.25,0-1.85-.66-1.85-1.92V33.59h-.89v-.44l.89-.37.37-1.33h.52v1.48h1.85v.74H60.23v3.69a1.18,1.18,0,0,0,.3.89C60.75,38.46,60.9,38.46,61.27,38.46Z"/><path class="cls-1" d="M67.69,39.12V35.06a1.88,1.88,0,0,0-.37-1.18,1.53,1.53,0,0,0-1.11-.37,1.8,1.8,0,0,0-1.48.52,2.84,2.84,0,0,0-.44,1.77v3.32h-1V30.19h1v2.73a2.77,2.77,0,0,1-.07.81h.07A2.63,2.63,0,0,1,65.1,33a2.17,2.17,0,0,1,1.18-.3,2.34,2.34,0,0,1,1.7.52A2.43,2.43,0,0,1,68.57,35v4.13Z"/><path class="cls-1" d="M73.22,39.27A2.79,2.79,0,0,1,71,38.38,3.39,3.39,0,0,1,70.2,36a3.56,3.56,0,0,1,.74-2.44,2.53,2.53,0,0,1,2-.89,2.29,2.29,0,0,1,1.85.81,3,3,0,0,1,.66,2.07v.59H71.08a2.36,2.36,0,0,0,.59,1.7,2.06,2.06,0,0,0,1.48.59,4.87,4.87,0,0,0,2-.44v.89a6.86,6.86,0,0,1-1,.3A3.61,3.61,0,0,1,73.22,39.27ZM73,33.51a1.38,1.38,0,0,0-1.18.52,2.66,2.66,0,0,0-.52,1.4h3.32a2.63,2.63,0,0,0-.37-1.4A1.93,1.93,0,0,0,73,33.51Z"/><path class="cls-1" d="M80.09,32.77a2.28,2.28,0,0,1,.74.07l-.15.89a2.54,2.54,0,0,0-.66-.07,1.85,1.85,0,0,0-1.33.59,2.19,2.19,0,0,0-.52,1.55v3.32h-1V32.85H78L78.09,34h.07a2.67,2.67,0,0,1,.81-1A1.78,1.78,0,0,1,80.09,32.77Z"/><path class="cls-1" d="M85,31.15a1.07,1.07,0,0,1,.15-.52.54.54,0,0,1,.74,0c.15.07.15.3.15.44a1.07,1.07,0,0,1-.15.52c-.15.07-.22.15-.37.15a.56.56,0,0,1-.37-.15A.62.62,0,0,1,85,31.15Zm1,8H85V32.85h1Z"/><path class="cls-1" d="M92.12,37.42a1.49,1.49,0,0,1-.66,1.33,3.25,3.25,0,0,1-1.85.44,4.42,4.42,0,0,1-1.92-.37v-.89a5.13,5.13,0,0,0,1,.37,5,5,0,0,0,1,.15,2.59,2.59,0,0,0,1.18-.22c.3-.15.37-.37.37-.74a.9.9,0,0,0-.3-.66,6.84,6.84,0,0,0-1.25-.59,6.84,6.84,0,0,1-1.25-.59,1.31,1.31,0,0,1-.52-.59,2.18,2.18,0,0,1-.15-.74,1.43,1.43,0,0,1,.59-1.18,2.89,2.89,0,0,1,1.7-.44,4.87,4.87,0,0,1,2,.44l-.37.81a3.93,3.93,0,0,0-1.7-.37,2,2,0,0,0-1,.22.75.75,0,0,0-.37.59,1,1,0,0,0,.15.44c.07.15.22.22.44.37a11.12,11.12,0,0,0,1.11.44,4.87,4.87,0,0,1,1.55.81A1.85,1.85,0,0,1,92.12,37.42Z"/><path class="cls-1" d="M99.65,39.27A2.46,2.46,0,0,1,98.54,39a2.55,2.55,0,0,1-.89-.66h-.07a5.23,5.23,0,0,1,.07,1V42h-1V32.85h.81l.15.89h.07a1.72,1.72,0,0,1,.89-.74,2.7,2.7,0,0,1,1.11-.22,2.28,2.28,0,0,1,1.92.89,4,4,0,0,1,.66,2.44,4,4,0,0,1-.66,2.44A3,3,0,0,1,99.65,39.27Zm-.15-5.68a1.64,1.64,0,0,0-1.4.52,2.74,2.74,0,0,0-.44,1.7V36a3.19,3.19,0,0,0,.44,1.92,1.67,1.67,0,0,0,1.4.59,1.45,1.45,0,0,0,1.25-.66A3.25,3.25,0,0,0,101.2,36a3.25,3.25,0,0,0-.44-1.85A1.25,1.25,0,0,0,99.5,33.59Z"/><path class="cls-1" d="M109.39,36a3.59,3.59,0,0,1-.81,2.44,2.73,2.73,0,0,1-2.14.89A3.12,3.12,0,0,1,105,39a3,3,0,0,1-1-1.11,4.46,4.46,0,0,1-.37-1.77,3.56,3.56,0,0,1,.74-2.44,2.73,2.73,0,0,1,2.14-.89,2.58,2.58,0,0,1,2.07.89A3,3,0,0,1,109.39,36Zm-4.8,0a2.75,2.75,0,0,0,.52,1.85,1.71,1.71,0,0,0,1.4.66,1.62,1.62,0,0,0,1.4-.66,3.23,3.23,0,0,0,.52-1.85,2.75,2.75,0,0,0-.52-1.85,1.57,1.57,0,0,0-1.4-.59,1.78,1.78,0,0,0-1.4.59A3.05,3.05,0,0,0,104.59,36Z"/><path class="cls-1" d="M116.18,39.12,115,35.43q-.11-.33-.44-1.55h-.07c-.15.66-.3,1.18-.37,1.55l-1.18,3.69h-1.11l-1.7-6.27h1c.44,1.55.74,2.8,1,3.62a8.92,8.92,0,0,1,.37,1.7h.07a4.54,4.54,0,0,1,.22-.81,6,6,0,0,1,.22-.81l1.18-3.62h1l1.11,3.62a9.68,9.68,0,0,1,.44,1.7h.07a3.74,3.74,0,0,1,.15-.66c.07-.3.44-1.85,1.18-4.65h1l-1.77,6.2Z"/><path class="cls-1" d="M122.9,39.27a2.79,2.79,0,0,1-2.21-.89,3.39,3.39,0,0,1-.81-2.36,3.56,3.56,0,0,1,.74-2.44,2.53,2.53,0,0,1,2-.89,2.29,2.29,0,0,1,1.85.81,3,3,0,0,1,.66,2.07v.59h-4.36a2.36,2.36,0,0,0,.59,1.7,2.06,2.06,0,0,0,1.48.59,4.87,4.87,0,0,0,2-.44v.89a6.86,6.86,0,0,1-1,.3A3.9,3.9,0,0,1,122.9,39.27Zm-.3-5.76a1.38,1.38,0,0,0-1.18.52,2.66,2.66,0,0,0-.52,1.4h3.32a2.63,2.63,0,0,0-.37-1.4A1.93,1.93,0,0,0,122.6,33.51Z"/><path class="cls-1" d="M129.69,32.77a2.28,2.28,0,0,1,.74.07l-.15.89a2.54,2.54,0,0,0-.66-.07,1.85,1.85,0,0,0-1.33.59,2.19,2.19,0,0,0-.52,1.55v3.32h-1V32.85h.81L127.7,34h.07a2.67,2.67,0,0,1,.81-1A2.08,2.08,0,0,1,129.69,32.77Z"/><path class="cls-1" d="M131.46,38.53a1.39,1.39,0,0,1,.15-.59.71.71,0,0,1,1,0,.73.73,0,0,1,.22.59.84.84,0,0,1-.22.59.67.67,0,0,1-.52.22,1.07,1.07,0,0,1-.52-.15A1.47,1.47,0,0,1,131.46,38.53Z"/></g><g id="Icons"><path class="cls-1" d="M67.24,17.12,63.7,15.06l-.22.37a3.78,3.78,0,0,1-3.25,1.92,4.06,4.06,0,1,1,0-8.12,3.55,3.55,0,0,1,3.25,1.92l.3.37,3.54-2.07L67,9a7.77,7.77,0,0,0-6.72-3.62,7.94,7.94,0,1,0,0,15.87A8,8,0,0,0,67,17.64Z"/><path class="cls-1" d="M67.1,21.18H72l1.48-3.62h7.31l1.48,3.62H87.1L78.24.15H73.89L75.07,3l-8,18.23m10-12.77,2,4.95h-4Z"/><path class="cls-1" d="M89,21.18H93.3V11.74h2.8v-4H93.3V5.91a1.53,1.53,0,0,1,1.55-1.62A2.59,2.59,0,0,1,96,4.5l.44.22L98.25.89,97.73.66A8.71,8.71,0,0,0,95.07.22,5.94,5.94,0,0,0,90.5,2.07,6,6,0,0,0,89,6.13v1.7H87.1v4h1.85Z"/><polygon class="cls-1" points="31.81 0 31.81 21.18 36.46 21.18 36.46 9.08 40.97 12.4 45.47 9.08 45.47 21.18 50.12 21.18 50.12 0 40.97 6.94 31.81 0"/><path class="cls-1" d="M105.63,5.39a7.91,7.91,0,1,0,0,15.8h0A8.9,8.9,0,0,0,112.2,18l-3.47-1.92a4.49,4.49,0,0,1-3.17,1.4,3.79,3.79,0,0,1-3.69-2.66h11.59v-1A8,8,0,0,0,105.63,5.39Zm-3.69,5.91A3.41,3.41,0,0,1,105.26,9a3.67,3.67,0,0,1,3.47,2.29Z"/><path class="cls-1" d="M123,5.39a7.91,7.91,0,1,0,0,15.8h0A8.9,8.9,0,0,0,129.62,18l-3.47-1.92a4.49,4.49,0,0,1-3.17,1.4,3.79,3.79,0,0,1-3.69-2.66h11.59v-1A8,8,0,0,0,123,5.39Zm-3.69,6a3.41,3.41,0,0,1,3.32-2.29,3.67,3.67,0,0,1,3.47,2.29Z"/><path class="cls-1" d="M130.28,4.65h1.77V5h-.74V6.94h-.37V5h-.74V4.65Z"/><path class="cls-1" d="M132.35,4.65h.52l.59,1.77h0L134,4.65h.52V6.86h-.22V5.17h0l-.59,1.7h-.3l-.74-1.7h0v1.7h-.37Z"/><polygon class="cls-1" points="4.72 18.01 4.72 7.31 11.44 10.48 11.44 5.32 0 0 0 21.04 11.44 26.35 11.44 21.18 4.72 18.01"/><polygon class="cls-2" points="18.23 18.01 18.23 7.31 11.44 10.48 11.44 5.32 22.88 0 22.88 21.04 11.44 26.35 11.44 21.18 18.23 18.01"/></g></g></g></svg>