<svg xmlns="http://www.w3.org/2000/svg" viewBox="0 0 196.68 42"><defs><style>.cls-1{fill:#f05225;}.cls-2{fill:#80bb41;}.cls-3{fill:#787878;}.cls-4{fill:#35a0da;}.cls-5{fill:#fdb813;}</style></defs><title>mcsf</title><g id="Layer_2" data-name="Layer 2"><g id="Layer_1-2" data-name="Layer 1"><path class="cls-1" d="M0,0H20q0,10,0,20H0V0Z"/><path class="cls-2" d="M22,0H42q0,10,0,20H22q0-10,0-20Z"/><path class="cls-3" d="M180.17,7.61a7.84,7.84,0,0,1,6.3-.74c0,1.23,0,2.47,0,3.7a4.12,4.12,0,0,0-3.18-.29,2.52,2.52,0,0,0-1.44,2,27.19,27.19,0,0,0-.08,3.24h6.32c0-1.37,0-2.74,0-4.11,1.43-.41,2.85-.87,4.28-1.29,0,1.8,0,3.61,0,5.41,1.42,0,2.85,0,4.28,0V19c-1.43-.06-2.86,0-4.29,0,0,2,0,4,0,6.05,0,1.12-.06,2.24.07,3.35a2.17,2.17,0,0,0,.93,1.72,3.22,3.22,0,0,0,3.29-.31v3.54a8.45,8.45,0,0,1-4,.6,4.8,4.8,0,0,1-3.41-1.56,6.45,6.45,0,0,1-1.22-4.12c0-3.1,0-6.19,0-9.29h-6.32q0,7.29,0,14.58h-4.32q0-7.29,0-14.57c-1,0-2,0-3,0,0-1.15,0-2.31,0-3.46,1,0,2,0,3,0a18.42,18.42,0,0,1,.3-4.61,5.89,5.89,0,0,1,2.44-3.33Z"/><path class="cls-3" d="M87.66,7.86A2.64,2.64,0,0,1,90,8.71a2.46,2.46,0,0,1,.3,2.81,2.69,2.69,0,0,1-2.88,1.2,2.44,2.44,0,0,1-2-2.41,2.5,2.5,0,0,1,2.19-2.45Z"/><path class="cls-3" d="M54.54,8.4h6.28q2.93,7.45,5.88,14.9c.5,1.24,1,2.5,1.49,3.73,2.52-6.21,5.07-12.4,7.57-18.61,2,0,4,0,6,0q0,12.6,0,25.2c-1.45,0-2.91,0-4.36,0,0-6.2,0-12.4,0-18.6,0-.28,0-.56,0-.84a3.33,3.33,0,0,0-.23.4c-2.5,6.34-5,12.67-7.53,19-1,0-2.07,0-3.11,0C64,27.26,61.46,20.9,58.89,14.55c-.07-.13-.14-.26-.22-.38-.05,2.72,0,5.43,0,8.15q0,5.64,0,11.28H54.54q0-12.6,0-25.2Z"/><path class="cls-3" d="M99.55,15.52a11.83,11.83,0,0,1,6.42,0,5.18,5.18,0,0,1,1.23.51c0,1.38,0,2.75,0,4.13a6.86,6.86,0,0,0-4.93-1.52,5.07,5.07,0,0,0-3.59,2,7,7,0,0,0-1.14,5,5.42,5.42,0,0,0,1.75,3.59,5.47,5.47,0,0,0,4,1.2,8.23,8.23,0,0,0,3.88-1.59c0,1.3,0,2.61,0,3.91A10.51,10.51,0,0,1,101.29,34a8.76,8.76,0,0,1-5.63-2.35,9,9,0,0,1-2.61-6,11,11,0,0,1,1.71-6.7,8.69,8.69,0,0,1,4.79-3.39Z"/><path class="cls-3" d="M146.75,15.25a11.43,11.43,0,0,1,6,.62c0,1.32,0,2.65,0,4a7.61,7.61,0,0,0-4.54-1.34,2.32,2.32,0,0,0-2.06,1.14,1.87,1.87,0,0,0,.63,2.21c1.23.82,2.69,1.17,4,1.9a5.69,5.69,0,0,1,2.48,2.35,5.27,5.27,0,0,1-1.12,6.08,8.27,8.27,0,0,1-6,1.83,12.85,12.85,0,0,1-4.39-1c0-1.39,0-2.79,0-4.18a9.45,9.45,0,0,0,3.92,1.69,5,5,0,0,0,3-.27,1.73,1.73,0,0,0,.52-2.46,5.19,5.19,0,0,0-1.89-1.23,18.08,18.08,0,0,1-3.73-1.91,4.47,4.47,0,0,1-1.61-2.45,5.51,5.51,0,0,1,.6-4.31,6.43,6.43,0,0,1,4.3-2.64Z"/><path class="cls-3" d="M116.86,15.82a4.87,4.87,0,0,1,4-.34c0,1.44,0,2.88,0,4.32a4.59,4.59,0,0,0-2.92-.69,3.59,3.59,0,0,0-2.7,2.16,8,8,0,0,0-.62,3.69q0,4.32,0,8.64h-4.26q0-9,0-18.05c1.42,0,2.84,0,4.27,0,0,1,0,2.07,0,3.1a5.53,5.53,0,0,1,2.23-2.83Z"/><path class="cls-3" d="M85.86,15.54c1.43,0,2.87,0,4.3,0,0,6,0,12,0,18H85.86q0-9,0-18.06Z"/><path class="cls-3" d="M138.78,19.76A7.64,7.64,0,0,0,135,15.94a11.47,11.47,0,0,0-6.19-.73,8.62,8.62,0,0,0-5.68,3,9.63,9.63,0,0,0-2,5.52,10.37,10.37,0,0,0,1.58,6.75,8.18,8.18,0,0,0,5,3.26,12.41,12.41,0,0,0,5.06,0,8.36,8.36,0,0,0,5-3.06,9.58,9.58,0,0,0,1.9-5.26A11.85,11.85,0,0,0,138.78,19.76ZM134.61,28a4,4,0,0,1-2.12,2.09,5.83,5.83,0,0,1-3.52.15,4.31,4.31,0,0,1-2.71-2.23,8.34,8.34,0,0,1-.66-4.52,5.74,5.74,0,0,1,1.67-3.77,4.52,4.52,0,0,1,2.84-1.12,4.65,4.65,0,0,1,3.61,1.23,5.83,5.83,0,0,1,1.49,3.76A9.46,9.46,0,0,1,134.61,28Z"/><path class="cls-3" d="M173.39,20.28a7.71,7.71,0,0,0-3.71-4.2,11.19,11.19,0,0,0-6.41-.87,9,9,0,0,0-4.77,2,8.85,8.85,0,0,0-2.85,5.55,12,12,0,0,0,.68,6.27,8,8,0,0,0,4.39,4.26,11.62,11.62,0,0,0,6.09.51,8.44,8.44,0,0,0,5.31-3.11,9.88,9.88,0,0,0,2-6.15A11.51,11.51,0,0,0,173.39,20.28Zm-3.9,6.12a5.63,5.63,0,0,1-1.12,2.65,4,4,0,0,1-2.52,1.36,5.71,5.71,0,0,1-3.09-.34,4.38,4.38,0,0,1-2.28-2.38,8.58,8.58,0,0,1-.51-3.93,6.24,6.24,0,0,1,1.31-3.6,4.42,4.42,0,0,1,3.15-1.51,4.74,4.74,0,0,1,3.46,1,5,5,0,0,1,1.56,2.88A11,11,0,0,1,169.49,26.4Z"/><path class="cls-4" d="M0,22H20q0,10,0,20H0V22Z"/><path class="cls-5" d="M22,22H42V42H22q0-10,0-20Z"/></g></g></svg>