<svg xmlns="http://www.w3.org/2000/svg" viewBox="0 0 159.46 42"><defs><style>.cls-1{fill:#0047ba;}.cls-2{fill:#231f20;}</style></defs><title>netapp</title><g id="Layer_2" data-name="Layer 2"><g id="Layer_1-2" data-name="Layer 1"><polygon class="cls-1" points="0 0 0 0.09 0 39.42 18.24 39.42 18.24 16.2 26.7 16.2 26.7 39.42 45.83 39.42 45.83 0.09 0 0"/><path class="cls-2" d="M55.5,38.55V19.38H59.9l8.74,11.46-.31-11.46h4.3V38.55h-3.4l-9.64-13c.15,2.56.21,13,.21,13Z"/><path class="cls-2" d="M79.26,32.58c.15,1.92,2,2.91,4.15,2.82,1.79-.08,2.16-1.12,3.4-1.54l1.6,2.8a9.26,9.26,0,0,1-5.66,2.14c-5,0-7.84-2.89-7.84-7.51,0-3.73,2.34-7.85,7.42-7.85,4.75,0,6.55,3.7,6.55,7.33a11.72,11.72,0,0,1-.15,1.83Zm5.38-3.13c0-1.08-.48-3-2.55-3a3,3,0,0,0-2.86,3Z"/><path class="cls-2" d="M95.64,20.19v3.36h2.76v3.5H95.64v6.14c0,1.49.38,2.17,1.52,2.17a14.18,14.18,0,0,0,1.91-.1l0,2.91a14.89,14.89,0,0,1-3.25.33,4.1,4.1,0,0,1-2.91-1.06,5.12,5.12,0,0,1-1.06-3.66V27.05H90.23v-3.5h1.64V20.19Z"/><path class="cls-2" d="M106.29,33.59l-1.6,5h-4.25l7.19-19.44h4.67L120,38.55H115.5l-1.87-5Zm6.1-3.32s-2.07-6.75-2.38-7.87h-.1c-.29,1.15-2.26,7.87-2.26,7.87Z"/><path class="cls-2" d="M120.67,23.81h4l.21,1.86h.06a7.24,7.24,0,0,1,4.89-2.16c3.21,0,6.09,2.55,6.09,6.82,0,4.87-3.39,7.17-6.66,7.17A4.75,4.75,0,0,1,125.42,36h-.31v6h-4.32Zm4.55,7.87a3.66,3.66,0,0,0,.11.92,3.11,3.11,0,0,0,3.08,2.07c2.29,0,3.64-1.58,3.64-4s-1.21-3.93-3.57-3.93A3.2,3.2,0,0,0,125.33,29a2.72,2.72,0,0,0-.11.77Z"/><path class="cls-2" d="M137.76,23.81h4l.21,1.86H142a7.24,7.24,0,0,1,4.89-2.16c3.21,0,6.09,2.55,6.09,6.82,0,4.87-3.39,7.17-6.66,7.17A4.75,4.75,0,0,1,142.5,36h-.31v6h-4.32Zm4.55,7.87a3.66,3.66,0,0,0,.11.92,3.11,3.11,0,0,0,3.08,2.07c2.29,0,3.64-1.58,3.64-4s-1.21-3.93-3.57-3.93A3.2,3.2,0,0,0,142.41,29a2.72,2.72,0,0,0-.11.77Z"/><polygon class="cls-2" points="155.5 22.78 152.43 22.78 152.43 23.93 153.47 23.93 153.47 26.61 154.54 26.61 154.54 23.93 155.5 23.93 155.5 22.78"/><polygon class="cls-2" points="158.39 22.82 157.7 24.23 156.9 22.82 155.81 22.82 155.81 26.58 156.79 26.58 156.79 24.63 157.63 25.92 158.48 24.63 158.48 26.58 159.46 26.58 159.46 22.82 158.39 22.82"/></g></g></svg>