<svg xmlns="http://www.w3.org/2000/svg" viewBox="0 0 256 32"><defs><style>.cls-1{fill:#b0d235;}.cls-2{fill:#034ea2;}</style></defs><title>nut</title><g id="Layer_2" data-name="Layer 2"><g id="Layer_1-2" data-name="Layer 1"><path class="cls-1" d="M212.07,31.39a.71.71,0,0,1-.46.17h-9a.74.74,0,0,1-.68-.41.72.72,0,0,1,.19-.85l16.46-13.87a.78.78,0,0,0,0-1.19l-16.44-14a.75.75,0,0,1-.27-.69.72.72,0,0,1,.71-.6h8.68a.73.73,0,0,1,.46.17l17.92,15.07.16.14a.6.6,0,0,1,0,.9l-.18.16Z"/><path class="cls-2" d="M36.15.22h-5.5a1.2,1.2,0,0,0-1.2,1.2V19.21a.49.49,0,0,1-.81.37L8.26,1.84A6.76,6.76,0,0,0,3.77,0C2.36,0,0,.59,0,4.43V30.18a1.2,1.2,0,0,0,1.2,1.2H6.7a1.2,1.2,0,0,0,1.2-1.2V12.31a.49.49,0,0,1,.81-.37l20.59,18a6.15,6.15,0,0,0,4.12,1.71c1.47,0,3.92-.6,3.92-4.62V1.42A1.2,1.2,0,0,0,36.15.22Z"/><path class="cls-2" d="M76.42.22H70a.71.71,0,0,0-.71.71V21.77c0,1.72-2.13,2.59-6.34,2.59h-8.7c-4.29,0-6.46-.87-6.46-2.59V.93a.71.71,0,0,0-.71-.71H40.62a.71.71,0,0,0-.71.71V22.09a8.86,8.86,0,0,0,.73,3.77,7.91,7.91,0,0,0,1.95,2.61,9,9,0,0,0,2.77,1.64,17.45,17.45,0,0,0,3.16.86,23.94,23.94,0,0,0,3.34.35q1.66.06,3.12.06h7.08c5.2,0,8.9-.72,11.31-2.2a7.76,7.76,0,0,0,3.76-7.09V.93A.71.71,0,0,0,76.42.22Z"/><path class="cls-2" d="M113.83,5.72V1.62A1.44,1.44,0,0,0,112.39.18H81.1a1.44,1.44,0,0,0-1.44,1.44v4.1A1.44,1.44,0,0,0,81.1,7.16H92a.72.72,0,0,1,.72.72V29.94a1.44,1.44,0,0,0,1.44,1.44h5a1.44,1.44,0,0,0,1.44-1.44V7.88a.72.72,0,0,1,.72-.72h11A1.44,1.44,0,0,0,113.83,5.72Z"/><path class="cls-2" d="M130.85,2.33A5,5,0,0,0,126.61.06a5,5,0,0,0-4.21,2.32L103.1,30.25a.71.71,0,0,0,.05.88.77.77,0,0,0,.59.24h7.59a.72.72,0,0,0,.6-.33l4.85-7.46a.58.58,0,0,1,.48-.26h18.61a.58.58,0,0,1,.48.26l5,7.47a.71.71,0,0,0,.59.32h7.28a.72.72,0,0,0,.59-1.11ZM122,15.72,126,10a.46.46,0,0,1,.76,0l4.06,5.72a.4.4,0,0,1-.33.63h-8.19A.38.38,0,0,1,122,15.72Z"/><path class="cls-2" d="M187.8.22h-5.66A1.12,1.12,0,0,0,181,1.34v18a.41.41,0,0,1-.68.31L159.84,1.84A6.77,6.77,0,0,0,155.34,0c-1.41,0-3.77.57-3.77,4.41V30.25a1.13,1.13,0,0,0,1.12,1.12h5.65a1.13,1.13,0,0,0,1.13-1.13V12.14a.41.41,0,0,1,.68-.31l20.72,18.12A6.14,6.14,0,0,0,185,31.66c1.46,0,3.92-.6,3.92-4.62V1.35A1.13,1.13,0,0,0,187.8.22Z"/><rect class="cls-2" x="191.44" y="0.22" width="7.9" height="31.16" rx="0.71" ry="0.71"/><path class="cls-2" d="M232.39,13.23a.77.77,0,0,0,1,0L247.75,1.28A.75.75,0,0,0,248,.6a.72.72,0,0,0-.71-.6h-8.68a.73.73,0,0,0-.46.17L228.09,8.39a.77.77,0,0,0,0,1.18Z"/><path class="cls-2" d="M232.34,18.45a.77.77,0,0,1,1,0l14.58,11.91a.75.75,0,0,1,.27.69.72.72,0,0,1-.71.6H238.8a.73.73,0,0,1-.46-.17l-10-8.34a.77.77,0,0,1,0-1.18Z"/><path class="cls-2" d="M256,29.1a3,3,0,1,1-2.94-2.89A2.91,2.91,0,0,1,256,29.1Zm-5.19,0a2.25,2.25,0,0,0,2.25,2.31,2.21,2.21,0,0,0,2.2-2.29,2.23,2.23,0,1,0-4.45,0Zm1.78,1.5h-.67V27.7a7.89,7.89,0,0,1,1.11-.09,1.53,1.53,0,0,1,1,.23.73.73,0,0,1,.3.62.75.75,0,0,1-.6.69v0c.28.09.42.32.51.7a2.6,2.6,0,0,0,.21.7h-.7a2.3,2.3,0,0,1-.23-.7c-.05-.3-.23-.44-.6-.44h-.32Zm0-1.62h.32c.37,0,.67-.12.67-.42s-.19-.44-.62-.44a1.63,1.63,0,0,0-.37,0Z"/></g></g></svg>