<svg xmlns="http://www.w3.org/2000/svg" viewBox="0 0 184.54 42"><defs><style>.cls-1{fill:#868688;}.cls-2{fill:#f99e36;}</style></defs><title>col</title><g id="Layer_2" data-name="Layer 2"><g id="Layer_1-2" data-name="Layer 1"><path class="cls-1" d="M4.84,42a12.68,12.68,0,0,1-4.75-.86V38.69a21.21,21.21,0,0,0,4.72.95c1.56,0,3.08-.29,3.08-2.16,0-1.44-1.07-1.76-2.39-2.13L4.26,35C2.65,34.54,0,33.88,0,30.65,0,27,2.94,26.16,6,26.16a9.18,9.18,0,0,1,4.26.89v2.36a11.49,11.49,0,0,0-4.38-1c-1.9,0-3.11.38-3.11,2,0,1.41,1.09,1.76,2.42,2.1l1.5.4c1.76.46,4,1.5,4,4.38C10.65,41,8,42,4.84,42"/><path class="cls-1" d="M20.89,42c-3,0-7.11-.95-7.11-7.92,0-6.77,4.18-7.92,7.11-7.92,2.73,0,7.11,1,7.11,7.92S23.74,42,20.89,42m0-13.71c-1.58,0-4.23.49-4.23,5.79s3.05,5.76,4.23,5.76c1.41,0,4.23-.58,4.23-5.76,0-5.39-2.65-5.79-4.23-5.79"/><rect class="cls-1" x="31.73" y="21.43" width="2.88" height="20.28"/><path class="cls-1" d="M48.8,41.71l-.29-2a6.59,6.59,0,0,1-5,2.28c-2.33,0-4.9-.84-4.9-4.69,0-4.23,4-5,6.42-5h3.37V30.94c0-2-1.18-2.45-3.17-2.45a18.62,18.62,0,0,0-5.33,1.07V27.22a16.77,16.77,0,0,1,5.73-1.06c3.34,0,5.64,1.24,5.64,5.24V41.71ZM48.42,34l-2.74,0c-2.62,0-4.17.72-4.17,3.2,0,2,1.21,2.53,2.74,2.53,2.1,0,4.18-2,4.18-2Z"/><path class="cls-1" d="M61.72,28.75c-1.7,0-3,1.84-3,1.84V41.71H55.82V26.45h2.28l.38,2.1A4,4,0,0,1,62,26.16a4,4,0,0,1,2.07.4v2.62a6.09,6.09,0,0,0-2.39-.43"/><path class="cls-1" d="M86.84,41.71h-4l-2.36-8.12c-.63-2.16-1.55-5.73-1.55-5.73s-1,3.6-1.59,5.7L75,41.71H71L67,26.45h3.28l1.84,8.76c.43,2,.92,5.18.92,5.18s.6-3.17,1.21-5.18l2.62-8.76H81l2.62,8.76c.61,2,1.24,5.18,1.24,5.18s.46-2.91,1-5.18l1.84-8.76h3.23Z"/><rect class="cls-1" x="94.47" y="26.35" width="2.88" height="15.36"/><path class="cls-1" d="M112.52,41.71V31.26c0-1.9-.78-2.62-2.74-2.62a9.63,9.63,0,0,0-5,1.93V41.71h-2.88V26.45h2.22l.58,2.16a9.36,9.36,0,0,1,5.79-2.45c2.82,0,5,1.24,5,5.13V41.71Z"/><path class="cls-1" d="M130.34,41.71,130,39.78A6.26,6.26,0,0,1,125.1,42c-2.39,0-6.33-1.07-6.33-7.92s4.87-7.92,6.91-7.92a5.36,5.36,0,0,1,4,1.56V21.43h2.88V41.71ZM129.71,30A6.06,6.06,0,0,0,126,28.46c-2.1,0-4.32.84-4.32,5.62,0,5,2.25,5.64,4,5.64a7.16,7.16,0,0,0,4-1.76Z"/><path class="cls-1" d="M141.45,42a12.66,12.66,0,0,1-4.75-.86V38.69a21.21,21.21,0,0,0,4.72.95c1.55,0,3.08-.29,3.08-2.16,0-1.44-1.06-1.76-2.39-2.13L140.87,35c-1.61-.46-4.26-1.12-4.26-4.35,0-3.63,2.94-4.49,6-4.49a9.17,9.17,0,0,1,4.26.89v2.36a11.47,11.47,0,0,0-4.38-1c-1.9,0-3.11.38-3.11,2,0,1.41,1.09,1.76,2.42,2.1l1.5.4c1.76.46,4,1.5,4,4.38,0,3.66-2.62,4.64-5.82,4.64"/><path class="cls-2" d="M160.69,17.15l.4-.11a75.2,75.2,0,0,0,8.58-3.14,31.73,31.73,0,0,0,7.89-4.49,17.15,17.15,0,0,0,5.54-7.82,7,7,0,0,0,.5-1.59c-3.84,5.24-19,5.78-19,5.78l3.59-3.29A50.15,50.15,0,0,0,139,11.92a27.41,27.41,0,0,1,15.43,6.9c2.06-.64,4.16-1.1,6.23-1.67"/><path class="cls-2" d="M184.54,16.64a83.8,83.8,0,0,0-28.62,3.62,27.59,27.59,0,0,1,4.81,6.87c7.67-4.27,18.29-9.72,23.8-10.49"/><path class="cls-2" d="M161.7,29.31a27.31,27.31,0,0,1,1.73,7.26L176.8,22.83Z"/><path class="cls-1" d="M149.28,28.35a1.15,1.15,0,1,1,1.19-1.14,1.11,1.11,0,0,1-1.19,1.14m0-2a.83.83,0,0,0-.91.89.91.91,0,1,0,.91-.89m.19,1.46-.06-.2a.53.53,0,0,0-.13-.26h-.15v.46h-.25V26.59h.36c.23,0,.47,0,.47.36a.32.32,0,0,1-.21.3.67.67,0,0,1,.15.26l.09.26Zm-.22-1h-.11v.36c.26,0,.34-.06.34-.19s0-.16-.22-.16"/></g></g></svg>