<svg xmlns="http://www.w3.org/2000/svg" viewBox="0 0 190.97 32"><defs><style>.cls-1{fill:#4274b9;}</style></defs><title>cop</title><g id="Layer_2" data-name="Layer 2"><g id="Layer_1-2" data-name="Layer 1"><path id="path13161" class="cls-1" d="M1.51,26.17H15.9c2.51,0,3.88-.24,4.69-.76a3.29,3.29,0,0,0,1.56-2.89,3.64,3.64,0,0,0-2-3.36,7.64,7.64,0,0,0-3.41-.57H10.88c-3.79,0-6.25-.66-7.9-2.08a9.21,9.21,0,0,1-3-7C0,5.54,2.22,2,5.49.9,6.91.38,8.57.24,12.26.24H27.88V5.87H13.77c-3,0-3.22,0-4.21.28A3,3,0,0,0,7.43,9.37a3.21,3.21,0,0,0,1.8,3.08c.95.43,1.7.52,4,.52h5.06c4.64,0,7.15.71,9,2.6,1.42,1.42,2.37,4.21,2.37,7a9.38,9.38,0,0,1-4,8c-1.56,1-3.55,1.28-8.24,1.28H1.51V26.17Z"/><path id="path13163" class="cls-1" d="M47.66,0c-4.45,0-8.33,1.09-10.79,3.08-3.12,2.46-4.78,7.05-4.78,13.11,0,4.21.9,7.67,2.74,10.27C37.29,30,42.08,32,48.13,32c4.26,0,7.86-1,10.22-2.94,3.12-2.51,4.88-7.05,4.88-12.59v-.9l0-.89-.06-.87L63,13l-.11-.83-.14-.8-.16-.78-.18-.75-.1-.37-.11-.36-.11-.35L62,8.39,61.9,8l-.13-.33-.13-.32-.14-.32-.14-.3-.15-.3-.15-.29-.16-.28-.17-.27-.17-.26-.17-.25-.18-.24C57.79,1.75,53.29,0,47.66,0Zm0,5.35c5.63,0,8.14,3.32,8.14,10.7S53.29,26.69,47.7,26.69s-8.24-3.36-8.24-10.74v-1.8l0-.28,0-.28,0-.27,0-.26,0-.26,0-.26,0-.25,0-.25,0-.24,0-.24,0-.23.05-.22.05-.22.06-.21.06-.21.06-.21.06-.2.07-.19.07-.19.07-.18.08-.17.08-.17L40.67,9l.08-.16.09-.15.09-.15C42.22,6.49,44.63,5.35,47.7,5.35Z"/><path id="path13167" class="cls-1" d="M66.83.24V31.81h6.72v-11h10.8c3.6,0,5.3-.47,7.14-2A10.82,10.82,0,0,0,95,10.51a10.75,10.75,0,0,0-2.84-7.38C90.07.8,88.12.24,82.59.24Zm6.72,5.63h9.28a7.9,7.9,0,0,1,2.46.28c1.47.52,2.32,2,2.32,4.12a5.3,5.3,0,0,1-1.37,4l-.07.06-.07.06-.07.06-.07.06-.08.05-.08,0-.08,0-.08,0-.09,0-.09,0-.09,0-.09,0-.1,0-.1,0-.1,0-.11,0-.11,0-.11,0-.12,0-.12,0-.12,0-.12,0H84l-.13,0H73.54V5.87Z"/><polygon id="polygon13171" class="cls-1" points="123.72 31.8 117 31.8 117 18.79 104.83 18.79 104.83 31.8 98.11 31.8 98.11 0.24 104.83 0.24 104.83 13.16 117 13.16 117 0.24 123.72 0.24 123.72 31.8"/><path id="path13173" class="cls-1" d="M143.31,0c-4.45,0-8.33,1.09-10.79,3.08-3.12,2.46-4.78,7.05-4.78,13.11,0,4.21.9,7.67,2.75,10.27C132.94,30,137.73,32,143.79,32c4.26,0,7.86-1,10.22-2.94,3.12-2.51,4.88-7.05,4.88-12.59v-.9l0-.89-.06-.87-.09-.85-.11-.83-.14-.8-.16-.78-.18-.75-.1-.37-.1-.36-.11-.35-.12-.34L157.54,8l-.13-.33-.13-.32-.14-.32-.15-.3-.15-.3-.15-.29-.16-.28-.17-.27-.17-.26L156,5.13l-.18-.24C153.44,1.75,148.95,0,143.31,0Zm0,5.35c5.63,0,8.14,3.32,8.14,10.7s-2.56,10.65-8.14,10.65-8.24-3.36-8.24-10.74V14.44l0-.29,0-.28,0-.28,0-.27,0-.26,0-.26,0-.26,0-.25,0-.25,0-.24,0-.24,0-.23.05-.22.05-.22.06-.21.06-.21.06-.21.07-.2.07-.19.07-.19.07-.18.08-.17.08-.17.08-.17.09-.16.09-.15.1-.15C137.87,6.49,140.28,5.35,143.36,5.35Z"/><path id="path13177" class="cls-1" d="M162.86,26.17h14.39c2.51,0,3.88-.24,4.68-.76a3.3,3.3,0,0,0,1.56-2.89,3.64,3.64,0,0,0-2-3.36,7.63,7.63,0,0,0-3.41-.57h-5.82c-3.79,0-6.25-.66-7.9-2.08a9.21,9.21,0,0,1-3-7c0-4,2.22-7.53,5.49-8.66,1.42-.52,3.08-.66,6.77-.66h15.62V5.87h-14.1c-3,0-3.22,0-4.21.28a3,3,0,0,0-2.13,3.22,3.21,3.21,0,0,0,1.8,3.08c.94.43,1.7.52,4,.52h5.06c4.64,0,7.15.71,9,2.6C190,17,191,19.78,191,22.53a9.37,9.37,0,0,1-4,8c-1.56,1-3.55,1.28-8.24,1.28H162.86V26.17Z"/></g></g></svg>