<svg xmlns="http://www.w3.org/2000/svg" viewBox="0 0 155.62 42"><defs><style>.cls-1{fill:#fdb515;}.cls-2{fill:#010101;}</style></defs><title>sym</title><g id="Layer_2" data-name="Layer 2"><g id="Layer_1-2" data-name="Layer 1"><g id="_Group_" data-name="&lt;Group&gt;"><path id="rect3886" class="cls-1" d="M39.36,0V1.29h1.29V0Zm0,2.58V3.88h1.29V2.58ZM35.48,3.88V5.17h1.29V3.88Z"/><path id="path3095" class="cls-1" d="M18.58,4.85A18.58,18.58,0,1,0,37.15,23.42,18.57,18.57,0,0,0,18.58,4.85Zm0,5.92A12.65,12.65,0,1,1,6,23.42,12.66,12.66,0,0,1,18.58,10.77Z"/><g id="text58"><path id="path2820" class="cls-2" d="M47.93,33.25a11.06,11.06,0,0,1-6.72-2l1.73-2.84a8.34,8.34,0,0,0,4.91,1.52A3.78,3.78,0,0,0,50,29.43a1.73,1.73,0,0,0,.78-1.5,1.92,1.92,0,0,0-.05-.47,1.14,1.14,0,0,0-.18-.39,1.9,1.9,0,0,0-.26-.34,1.43,1.43,0,0,0-.41-.31l-.47-.26a4.49,4.49,0,0,0-.59-.26q-.41-.16-.7-.23l-.8-.28-.9-.31a11.52,11.52,0,0,1-1.63-.7,9.29,9.29,0,0,1-1.37-1,4,4,0,0,1-1.06-1.55A6.1,6.1,0,0,1,42,19.68a4.56,4.56,0,0,1,1.71-3.8,7,7,0,0,1,4.5-1.37,10.6,10.6,0,0,1,5.45,1.24l-1.32,3a9.27,9.27,0,0,0-4-.93q-2.69,0-2.69,1.76a1.6,1.6,0,0,0,.16.72,2.44,2.44,0,0,0,.34.52,1.89,1.89,0,0,0,.65.41q.49.21.8.31l1.09.34.52.16q.9.28,1.55.54a8.85,8.85,0,0,1,1.42.75,4.87,4.87,0,0,1,1.27,1.06,5.15,5.15,0,0,1,.83,1.5,5.75,5.75,0,0,1,.34,2,4.87,4.87,0,0,1-1.73,3.9,7.26,7.26,0,0,1-4.88,1.47"/><path id="path2822" class="cls-2" d="M60.93,33.62,56,19.63H60.1l2.51,9.77,2.12-9.77h3.8l-4,13.54q-1.4,4.7-5.82,4.7a11.22,11.22,0,0,1-2.2-.23l.41-2.74q1,.1,1.32.1a3.39,3.39,0,0,0,1.65-.34,2.66,2.66,0,0,0,1-1.06"/><path id="path2824" class="cls-2" d="M81.34,21.39a5.66,5.66,0,0,1,4.14-2.07,3.06,3.06,0,0,1,2.87,1.4,6.59,6.59,0,0,1,.85,3.49V33H85.27V24.16q0-1.6-1.24-1.6a3.5,3.5,0,0,0-2.2,1.09V33H77.91V24.16q0-1.6-1.24-1.6a3,3,0,0,0-2.2,1.14V33H70.54V19.63H73l.78,2a5.82,5.82,0,0,1,4.37-2.35,3.25,3.25,0,0,1,3.23,2.07"/><path id="path2826" class="cls-2" d="M99,24.44V24.1a1.8,1.8,0,0,0-.41-1.32,1.83,1.83,0,0,0-1.37-.41,9.28,9.28,0,0,0-3.75,1l-1.34-2.58a10.66,10.66,0,0,1,5.43-1.5,5.5,5.5,0,0,1,4,1.32,4.84,4.84,0,0,1,1.37,3.7V33h-2.43q-.67-1.42-.7-1.42a5.74,5.74,0,0,1-3.93,1.68,4.47,4.47,0,0,1-3-1,3.65,3.65,0,0,1-1.19-2.87,3.56,3.56,0,0,1,1.37-3.1q1.6-1.19,5.94-1.81m0,5.25V26.87q-2.56.52-3.1,1.14a1.49,1.49,0,0,0-.36,1.06q0,1.42,1.37,1.42a3.19,3.19,0,0,0,2.09-.8"/><path id="path2828" class="cls-2" d="M106.08,33V19.63h2.43l.78,2a5.9,5.9,0,0,1,4.47-2.35q3.83,0,3.83,4.88V33h-3.93V24.16q0-1.6-1.34-1.6a3.12,3.12,0,0,0-2.3,1.14V33h-3.93"/><path id="path2830" class="cls-2" d="M121.65,22.32h-2V19.63h2l.67-3.8h3.2v3.8h2.84v2.69h-2.84v6.44a1.93,1.93,0,0,0,.28,1.21,1.51,1.51,0,0,0,1.16.34,5.23,5.23,0,0,0,1.37-.26l.47,2.71a9.42,9.42,0,0,1-3,.49q-4.21,0-4.21-4.29V22.32"/><path id="path2832" class="cls-2" d="M134.53,27.46a3.29,3.29,0,0,0,.75,2,2.59,2.59,0,0,0,1.91.65,4.89,4.89,0,0,0,1.4-.21,5.7,5.7,0,0,0,1.06-.39L140.7,29l1.55,2.48a16.34,16.34,0,0,1-1.37.93,7.69,7.69,0,0,1-1.63.59,9.07,9.07,0,0,1-2.35.28,6.26,6.26,0,0,1-4.7-1.81,7,7,0,0,1-1.73-5,7.78,7.78,0,0,1,1.65-5.14,5.6,5.6,0,0,1,4.55-2,5.17,5.17,0,0,1,4.45,2,8.38,8.38,0,0,1,1.47,5.12v1h-8.06m0-2.3h4.06q0-3-1.94-3a1.68,1.68,0,0,0-1.45.72,4.73,4.73,0,0,0-.67,2.3"/><path id="path2834" class="cls-2" d="M151,33.25a6,6,0,0,1-4.83-1.89,7.51,7.51,0,0,1-1.6-5,7.58,7.58,0,0,1,1.68-5.07,5.88,5.88,0,0,1,4.76-2,6.45,6.45,0,0,1,4.42,1.5l-1.84,2.61a4.84,4.84,0,0,0-1.21-.7,3.67,3.67,0,0,0-1.34-.21q-2.4,0-2.4,3.8T151.07,30A4.31,4.31,0,0,0,153.73,29l1.89,2.43A6.27,6.27,0,0,1,151,33.25"/></g><path id="path3876" class="cls-2" d="M23.85,14.22a29.87,29.87,0,0,0-5.57,9.48,12.73,12.73,0,0,0-6.49-6.62c-.6-.15-.89-.24-1.29.32s-.16,1.07.32,1.67a34.9,34.9,0,0,1,3.66,4.79c1.15,2.08,2.59,5.51,3.07,6.41a2.23,2.23,0,0,0,1.67,1c1.91-.23,1.91-1.19,2.27-2.87a15.38,15.38,0,0,1,4.94-9V14.22Z"/><path id="rect3951" class="cls-2" d="M38.07,1.29V2.58h1.29V1.29Zm0,1.29H35.48V3.88h2.58ZM35.48,3.88H34.19V6.46h1.29Zm0,2.58V7.75h1.29V6.46Zm1.29,0h1.29V5.17H36.78ZM35.48,7.75H34.19V9H32.9V7.75H30.32V9H29v1.29h1.29v1.29H29V10.34H27.73v1.29H26.44v1.29H25.15v5.17h2.58V16.8H29V15.51h1.29V14.22H29V12.92h1.29v1.29h1.29V12.92H32.9V11.63h1.29V10.34h1.29Zm-2.58,0h1.29V6.46H32.9Zm0-1.29V5.17H31.61V6.46Z"/></g></g></g></svg>