<svg xmlns="http://www.w3.org/2000/svg" viewBox="0 0 161.25 42"><defs><style>.cls-1{fill:#010101;}</style></defs><title>ver</title><g id="Layer_2" data-name="Layer 2"><g id="Layer_1-2" data-name="Layer 1"><g id="_Group_" data-name="&lt;Group&gt;"><path id="_Compound_Path_" data-name="&lt;Compound Path&gt;" class="cls-1" d="M131.79,18.34c-.24,0-.47.24-.95,1.21l-7.5,18.83c-.48,1.45-1.21,2.41-2.41,2.65H120c-.24,0-.5,0-.5.24s.25.26.73.26h6.51c.48,0,.73,0,.73-.26s-.25-.24-.5-.24h-.47c-1,0-1.21-.25-1.21-1a2.92,2.92,0,0,1,.47-1.68L127.23,34c.24-.24.23-.24.47-.24h6.66l0,0h0v0h0v0h0V34l2.41,6.29c.24.48,0,.71-.26.71s-.24,0-.24.24.25.26.73.26h5.8c1,0,1.21,0,1.21-.26s0-.24-.24-.24h-1.23c-.72-.24-1.67-.73-2.63-3.38-1.94-4.59-6.77-16.9-7.5-18.34C132.29,18.59,132,18.34,131.79,18.34Zm-.71,6v.26l2.65,7.48c.24,0,0,.24,0,.24h-5.56v0h0v0h0v0h0v0h0v-.11h0v0h.06l2.67-7.48S130.84,24.38,131.08,24.38Z"/><path id="_Compound_Path_2" data-name="&lt;Compound Path&gt;" class="cls-1" d="M54.57,18.84c-.48,0-.73.23-.73.47a.81.81,0,0,0,.47.24h1.21c1,.23,1.22.72,1.47,1.68V34.89l0,.5v.91l0,.22v.62l0,.19v.19l0,.17v.37l0,.17,0,.15v.17l0,.13,0,.15,0,.15,0,.13v.13l0,.11A1.86,1.86,0,0,1,56,41H54.81a.9.9,0,0,0-.5.24c0,.24.25.26.73.26h8c.48,0,.47,0,.47-.26a.23.23,0,0,0-.24-.24H61.81a1.54,1.54,0,0,1-1.21-1.68,44.55,44.55,0,0,1-.26-6.53v-.47l.26-.24,2.65.24c.24,0,.47,0,.47.24.48.24,1.94,2.43,3.15,4.12C68.56,38.87,69.52,40.31,71,41c.72.48,1.45.5,3.15.5H77c.24,0,.47,0,.47-.26a.23.23,0,0,0-.24-.24h-1a6.33,6.33,0,0,1-3.38-2.18,94.17,94.17,0,0,1-6.53-7.71c3.14-2.65,4.12-4.59,4.12-6.77a4.56,4.56,0,0,0-2.18-4.09c-1.45-1.2-3.63-1.44-5.56-1.44-.72,0-3.13.24-4.09.24C57.94,19.08,56.26,18.84,54.57,18.84Zm7.71,1.44c1.69,0,4.59,1.21,4.59,5.56a6.24,6.24,0,0,1-1.7,4.57,4,4,0,0,1-2.15.5,8.6,8.6,0,0,1-2.41-.5s-.26,0-.26-.47v-9.2l0,0v-.06h0v0l0,0v0h0v0h0v0h.06v0h.06A3.55,3.55,0,0,1,62.28,20.28Z"/><polygon id="_Path_" data-name="&lt;Path&gt;" class="cls-1" points="81.11 7.48 90.28 7.48 93.18 4.34 77.73 4.34 81.11 7.48"/><path id="_Path_2" data-name="&lt;Path&gt;" class="cls-1" d="M3.86,22l-.06-.16-.07-.16-.06-.14-.07-.14-.06-.12-.06-.13L3.42,21l-.07-.11-.06-.1-.06-.1-.06-.09-.06-.09-.06-.09L3,20.36l-.06-.07-.06-.07-.06-.07-.07-.06L2.68,20,2.61,20l-.06-.05-.07-.05-.07,0-.08,0-.07,0-.08,0-.08,0-.08,0-.08,0-.09,0-.09,0-.09,0H.48A.88.88,0,0,1,0,19.31c0-.24.48-.48,1-.48,1.46,0,3.14.24,4.35.24.72,0,2.17-.24,3.62-.24.24,0,.72.24.72.48a.84.84,0,0,1-.48.24A1.86,1.86,0,0,0,8,19.79c-.24,0-.24.24-.24.48a8,8,0,0,0,.72,2.42l5.07,13.51c1.45-3.38,5.31-13,6-15a1.45,1.45,0,0,0,.24-1c0-.24,0-.48-.48-.72H18.11c-.24,0-.48,0-.48-.24s.24-.48,1-.48c1.45,0,2.65.24,3.14.24s1.93-.24,2.9-.24a.52.52,0,0,1,.48.48.84.84,0,0,1-.48.24,3.71,3.71,0,0,0-1.45.23c-.48.24-.72.72-1.69,2.66-1.21,2.9-1.93,4.59-3.62,8.21C15.94,35,14.73,38.38,14,39.83,13.28,41.52,13,42,12.56,42c-.24,0-.48-.48-1.21-1.93Z"/><path id="_Path_3" data-name="&lt;Path&gt;" class="cls-1" d="M33.07,27.52V21.24c0-1-.24-1.45-1.21-1.68H30.66c-.48,0-.48-.24-.48-.24a.52.52,0,0,1,.48-.48c1.69,0,3.62.24,4.34.24h7.49a4.25,4.25,0,0,1,1.45-.24.84.84,0,0,1,.48-.24.84.84,0,0,1,.24.48A4.91,4.91,0,0,0,44.42,21a4.75,4.75,0,0,0-.24,1.94.24.24,0,0,1-.24.24c-.24,0-.24,0-.24-.48a5.47,5.47,0,0,1-.24-1c-.24-.49-.48-1-2.17-1a23.41,23.41,0,0,0-4.1-.24c-.24,0-.24,0-.24.24v7.73c0,.24,0,.24.24.24H42a2,2,0,0,0,1.45-.48c.24-.24.24-.48.48-.48V28a12.32,12.32,0,0,1-.24,2.17v2.17c0,.24,0,.48-.24.48s-.24,0-.24-.24A2.62,2.62,0,0,0,43,31.38c0-.48-.48-1-1.69-1a22.08,22.08,0,0,0-4.1-.24c-.24,0-.24.24-.24.48v7c0,1.93.48,2.41,3.62,2.41a12.75,12.75,0,0,0,2.9-.24c.72-.48,1-1.21,1.21-2.41,0-.24.24-.48.24-.24.24,0,.24.24.24.48,0,.72-.24,2.65-.24,3.38-.24.72-.48.72-1.69.72-4.59,0-6.52-.24-8.21-.24H31.14c-.48,0-.48,0-.48-.24,0,0,0-.24.48-.24h1c.72-.24.72-1,1-1.69V27.52Z"/><path id="_Path_4" data-name="&lt;Path&gt;" class="cls-1" d="M83.77,27.52V21.24c-.24-1-.48-1.45-1.21-1.68h-1a.52.52,0,0,1-.48-.48,1.06,1.06,0,0,1,.72-.24c1.21,0,2.9.24,3.86.24.72,0,2.41-.24,3.62-.24a1.06,1.06,0,0,1,.72.24.52.52,0,0,1-.48.48h-1c-.72.23-1,.72-1.21,1.68V32.83a50.78,50.78,0,0,0,.24,6.76c0,.72.24,1.21,1.21,1.45h1.45a.84.84,0,0,1,.48.24c0,.24-.24.24-.48.24H81.84c-.48,0-.72,0-.72-.24A.84.84,0,0,1,81.6,41H82.8c.48-.24.72-.72.72-1.69a45,45,0,0,0,.24-6.52Z"/><path id="_Path_5" data-name="&lt;Path&gt;" class="cls-1" d="M106,20.51l-4.35.24c-1.69,0-2.41.24-2.9,1a1.83,1.83,0,0,0-.48,1c0,.24-.24.24-.48.24,0,0-.24,0-.24-.48s.72-3.14.72-3.38a.84.84,0,0,1,.24-.48,8.53,8.53,0,0,0,1.45.24,10.82,10.82,0,0,0,2.9.24h11.83a16.32,16.32,0,0,0,2.9-.24c.24,0,.24,0,.24.48v3.62a.84.84,0,0,1-.24.48c-.24,0-.48-.24-.48-.72v-.24c0-.72-.72-1.7-3.38-1.7l-3.86-.24V32.83a45,45,0,0,0,.24,6.52A1.62,1.62,0,0,0,111,41h1.69a.84.84,0,0,1,.48.24c0,.24-.24.24-.72.24H104c-.24,0-.48,0-.48-.24,0,0,0-.24.48-.24h1c.73-.24.73-1,1-1.69V20.51Z"/><path id="_Path_6" data-name="&lt;Path&gt;" class="cls-1" d="M149.43,41.28l0,0,0,0,0,0,0,0,0,0,0,0,0,0,0,0,0,0,0,0,0,0,0,0,0,0,0,0,0,0,0,0,0,0,0,0,0,0,0,0,0,0,0,0,0,0v-.35c0-1.69.24-3.62.24-4.1s0-.72.24-.72a.52.52,0,0,1,.48.48,4.71,4.71,0,0,0,.24,1.69c.48,2.17,2.41,2.9,4.1,2.9,2.9,0,4.1-1.69,4.1-3.38,0-1.45-.48-2.9-2.9-4.83l-1.45-1c-3.14-2.65-4.34-4.83-4.34-7.24,0-3.15,2.65-5.55,7-5.55a12.39,12.39,0,0,1,3.86.48c.24,0,.48,0,.48.24a33.89,33.89,0,0,0-.24,3.62c0,.72,0,1-.24,1s-.24-.24-.24-.48a3.48,3.48,0,0,0-1-1.94c-.24-.72-1.21-1.69-3.14-1.69a3.33,3.33,0,0,0-3.62,3.15c0,1.45.72,2.41,3.14,4.34l1,.72c3.62,2.65,4.83,4.83,4.83,7.48a6.07,6.07,0,0,1-2.9,5.31A8.19,8.19,0,0,1,153.77,42,10.85,10.85,0,0,1,149.43,41.28Z"/><polygon id="_Path_7" data-name="&lt;Path&gt;" class="cls-1" points="97.04 0 73.87 0 76.53 2.65 94.63 2.65 97.04 0"/><polygon id="_Path_8" data-name="&lt;Path&gt;" class="cls-1" points="85.7 12.55 88.84 9.17 82.32 9.17 85.7 12.55"/></g></g></g></svg>