<svg xmlns="http://www.w3.org/2000/svg" viewBox="0 0 208.91 32"><defs><style>.cls-1{fill:#737276;}.cls-1,.cls-2,.cls-3{fill-rule:evenodd;}.cls-2{fill:#747377;}.cls-3{fill:#fff;}</style></defs><title>vm</title><g id="Layer_2" data-name="Layer 2"><g id="Layer_1-2" data-name="Layer 1"><path class="cls-1" d="M16.06,20.9,20.6,10.22c.61-1.44,1.21-2.89,1.87-4.31C25.7-1,34.18-1.64,39,3.13c.87.87,1.28.63,2,0A12.75,12.75,0,0,1,53.4.71a8,8,0,0,1,3.83,2.42c.71.86,1.11.7,1.9.07,4-3.15,8.43-4.2,13.2-2.15A9.5,9.5,0,0,1,78.4,10.2c.08,5.64,0,11.28,0,16.92,0,3.11-2,5-5,4.79-2.28-.14-3.89-2-3.91-4.77,0-4.63,0-9.26,0-13.9,0-.37,0-.75,0-1.12A4.29,4.29,0,0,0,65.58,7.9C63,7.62,61.07,8.81,60.41,11a7.36,7.36,0,0,0-.2,2.11c0,4.59,0,9.19,0,13.78,0,2.58-1.2,4.33-3.29,4.88a4.32,4.32,0,0,1-5.58-3.55,11.32,11.32,0,0,1-.15-1.89c0-4.63,0-9.26,0-13.9a4.13,4.13,0,0,0-2.36-4.12,4.85,4.85,0,0,0-5.19.5A4.67,4.67,0,0,0,42,12.91c0,4.78,0,9.56,0,14.35a4.32,4.32,0,0,1-4.7,4.66c-2.53,0-4.24-2-4.25-4.91,0-5.6,0-11.21,0-16.81,0-.3,0-.6,0-.9A1.26,1.26,0,0,0,32,7.95a1.22,1.22,0,0,0-1.53.8l-2.75,6C25.87,18.85,24,23,22.1,27a16.17,16.17,0,0,1-1.46,2.52,5.57,5.57,0,0,1-9.16.09,25.7,25.7,0,0,1-2.58-5Q4.73,15.6.55,6.51c-1.18-2.58-.4-5,1.94-6s4.85-.05,6,2.62l7.06,16.69C15.66,20.08,15.82,20.38,16.06,20.9Z"/><path class="cls-2" d="M102.28,8.4l-3.42,9.77q-2,5.7-4,11.4c-.5,1.43-1.23,2-2.44,2.1a2.63,2.63,0,0,1-2.68-2Q85.09,16.8,80.5,3.9A2.2,2.2,0,0,1,81.71.84a2.34,2.34,0,0,1,3.16,1.68q3.53,10.13,7,20.29c.16.45.32.9.56,1.56L95.69,15Q97.82,8.89,100,2.77c.57-1.63,1.13-2.07,2.53-2s2,.53,2.51,2.12q3.45,10,6.88,20c.16.46.33.91.56,1.54l3.44-9.85Q118,8.55,120,2.58c.31-.88.74-1.65,1.76-1.83a2.16,2.16,0,0,1,2.56,2.94c-.74,2.23-1.58,4.42-2.38,6.63l-6.81,18.94c-.06.18-.13.35-.2.52a2.67,2.67,0,0,1-2.64,1.87,2.53,2.53,0,0,1-2.43-2c-1.09-3.09-2.15-6.2-3.22-9.3q-1.94-5.6-3.89-11.19C102.69,8.93,102.71,8.58,102.28,8.4Z"/><path class="cls-2" d="M146.63,26.9a13.06,13.06,0,0,1-7.47,4.64c-4.47.89-8.68.38-12.1-2.92a9,9,0,0,1,1.74-14,15.22,15.22,0,0,1,7-2,30.12,30.12,0,0,1,9.76,1c.93.25,1,0,1-.85,0-4.66-2.81-7.67-7.46-8a17.16,17.16,0,0,0-8.43,1.27A2,2,0,0,1,128,5a1.89,1.89,0,0,1,1-2.55c5.3-2.23,10.71-2.64,16.09-.4,3.61,1.5,5.31,4.57,5.76,8.33.47,3.94.14,7.91.2,11.86,0,2.31,0,4.63,0,6.95a2.21,2.21,0,0,1-1.95,2.46,2.12,2.12,0,0,1-2.46-2.13C146.6,28.77,146.63,28,146.63,26.9ZM138.14,16a11.56,11.56,0,0,0-6.64,1.67,5.53,5.53,0,0,0-.24,8.93,9.19,9.19,0,0,0,7.67,1.49c3.58-.7,6.43-2.39,7.54-6.15a16.19,16.19,0,0,0,.22-3.68,1,1,0,0,0-.93-1.23A36.71,36.71,0,0,0,138.14,16Z"/><path class="cls-2" d="M188.65,17.93c-3.32,0-6.65,0-10,0-.83,0-1,.23-.86,1,.8,4,2.78,7.06,6.73,8.38a11.38,11.38,0,0,0,11.58-2.48A2.51,2.51,0,0,1,198,24a1.87,1.87,0,0,1,1.7,1.26,1.91,1.91,0,0,1-.55,2.14,14.78,14.78,0,0,1-7.64,4.18c-5.06,1-9.66,0-13.54-3.52a14.44,14.44,0,0,1-4.56-8.76c-.79-5.32.22-10.22,4-14.26a13.11,13.11,0,0,1,13.69-3.91c5.24,1.36,8.14,5.11,9.53,10.17a14.76,14.76,0,0,1,.52,4.1c0,1.84-.71,2.55-2.59,2.56Zm-1.51-3.42h6.72c3.09,0,3.09,0,2.24-3-1.54-5.38-6.36-8.25-11.35-6.72-4.16,1.28-6.39,5.15-7,9.07-.12.76.44.62.86.62Z"/><path class="cls-1" d="M161,7.72a13.24,13.24,0,0,1,6.09-6,9.2,9.2,0,0,1,4.2-1,2.1,2.1,0,0,1,2.21,1.92,2.2,2.2,0,0,1-1.73,2.61c-.54.13-1.1.19-1.65.32-5,1.22-8.37,5.15-9,10.62-.48,4.32-.11,8.65-.22,13a2.25,2.25,0,0,1-2.76,2.39,2.14,2.14,0,0,1-1.76-2.37c0-3.28,0-6.57,0-9.85q0-8,0-16c0-1.62.88-2.67,2.2-2.68s2.31,1,2.32,2.69c0,1.34,0,2.69,0,4C161,7.39,161,7.43,161,7.72Z"/><path class="cls-2" d="M208.91,4.38a3.73,3.73,0,1,1-7.46,0A3.71,3.71,0,0,1,205.19.62,3.65,3.65,0,0,1,208.91,4.38Zm-3.7-3a3,3,0,0,0-3,2.95,3.09,3.09,0,0,0,3,3.09,3.18,3.18,0,0,0,3-3.05A3,3,0,0,0,205.21,1.4Z"/><path class="cls-2" d="M204.89,2.51c1.82,0,2.24.65,1.5,2.12-.2.39,0,.54.17.77s.26.5,0,.68-.49,0-.67-.2-.28-.35-.43-.52c-.36-.39-.72-.73-.82.17,0,.32-.11.62-.51.58s-.34-.41-.35-.7c0-.52,0-1,0-1.56C203.66,2.87,203.84,2.2,204.89,2.51Zm1,1.2c-.12-.36-.4-.45-.76-.45s-.54.13-.54.51.22.5.56.48S205.83,4.14,205.92,3.71Z"/><path class="cls-3" d="M205.92,3.71c-.09.43-.39.52-.74.54s-.56-.08-.56-.48.17-.51.54-.51S205.8,3.35,205.92,3.71Z"/></g></g></svg>